<svg width="232" height="178" viewBox="0 0 232 178" fill="none" xmlns="http://www.w3.org/2000/svg">
<path d="M99.7781 38.9612H148.068C148.068 38.9612 143.61 17.6386 123.558 17.6386C105.723 17.6386 99.7781 38.9612 99.7781 38.9612Z" fill="#EB5E49"/>
<path d="M124.44 6.10352e-05H123.406V17.6306H124.44V6.10352e-05Z" fill="#EB5E49"/>
<path d="M231.442 176.317C231.442 176.374 179.629 176.422 115.725 176.422C51.8213 176.422 0 176.386 0 176.317C0 176.249 51.8053 176.213 115.725 176.213C179.645 176.213 231.442 176.257 231.442 176.317Z" fill="#263238"/>
<path d="M12.8119 151.211C13.4897 151.259 14.1507 151.444 14.7554 151.754C15.3601 152.064 15.8962 152.493 16.3316 153.014C17.1975 154.064 17.8105 155.298 18.1236 156.622C18.801 159.156 18.3841 162.15 17.6626 164.672C14.9206 163.69 13.2249 160.763 12.4512 159.224C11.2485 156.795 10.531 151.664 12.7999 151.207" fill="#EB5E49"/>
<path d="M21.6111 167.747C21.1993 167.108 20.9639 166.372 20.9287 165.613C20.8935 164.854 21.0598 164.099 21.4107 163.425C21.7725 162.758 22.2638 162.169 22.8557 161.693C23.4476 161.218 24.1284 160.865 24.8582 160.655C25.5277 160.447 26.3054 160.363 26.8866 160.751C27.1487 160.95 27.3527 161.214 27.4775 161.518C27.6023 161.822 27.6433 162.154 27.5962 162.479C27.491 163.13 27.2142 163.742 26.7944 164.251C25.4595 166.059 23.84 167.562 21.583 167.747" fill="#EB5E49"/>
<path d="M21.9159 176.217C21.8564 176.047 21.8148 175.871 21.7916 175.692C21.7195 175.315 21.6232 174.83 21.507 174.249C21.1472 172.657 21.047 171.018 21.2103 169.394C21.3994 167.763 22.0208 166.211 23.0103 164.9C23.3126 164.508 23.6612 164.154 24.0485 163.846C24.1538 163.763 24.2635 163.685 24.3773 163.614C24.4134 163.584 24.454 163.559 24.4975 163.542C23.9904 163.975 23.5272 164.457 23.1145 164.981C22.1772 166.293 21.5869 167.821 21.3988 169.422C21.1422 171.29 21.4589 173.002 21.6433 174.233C21.7395 174.846 21.8197 175.343 21.8638 175.688C21.8953 175.863 21.9128 176.04 21.9159 176.217Z" fill="#263238"/>
<path d="M13.6938 155.071C13.7396 155.134 13.7773 155.203 13.8061 155.275C13.8783 155.436 13.9745 155.636 14.0867 155.889C14.3312 156.422 14.672 157.196 15.0849 158.154C15.9107 160.074 17.0171 162.744 18.1716 165.718C19.3262 168.693 20.3083 171.407 20.9778 173.383C21.3225 174.369 21.5911 175.171 21.7795 175.728C21.8637 175.993 21.9279 176.205 21.98 176.369C22.0086 176.443 22.0287 176.52 22.0401 176.598C21.9994 176.53 21.9671 176.457 21.9439 176.382C21.8838 176.221 21.8076 176.013 21.7074 175.752L20.8615 173.427C20.1439 171.467 19.1418 168.757 17.9912 165.786C16.8407 162.816 15.7503 160.138 14.9566 158.206C14.5557 157.256 14.2471 156.482 14.0186 155.917C13.9143 155.66 13.8301 155.456 13.766 155.291C13.7359 155.22 13.7118 155.146 13.6938 155.071Z" fill="#263238"/>
<path d="M18.6569 170.613C17.832 169.24 16.6921 168.082 15.3314 167.237C13.9707 166.391 12.4283 165.882 10.8317 165.75C10.03 165.694 9.04383 165.83 8.68304 166.552C8.32226 167.274 8.80331 168.156 9.35652 168.741C10.5319 169.97 12.045 170.825 13.7051 171.196C15.3652 171.566 17.0979 171.438 18.6849 170.825" fill="#EB5E49"/>
<path d="M12.0664 167.923C12.2364 167.915 12.4068 167.921 12.5755 167.943C12.7732 167.954 12.97 167.977 13.1648 168.011C13.3933 168.055 13.6619 168.079 13.9425 168.16C14.2562 168.226 14.5655 168.312 14.8685 168.416C15.2197 168.529 15.5637 168.663 15.8988 168.817C16.6695 169.162 17.3984 169.594 18.0716 170.104C18.7369 170.626 19.3396 171.223 19.8675 171.884C20.0954 172.171 20.3056 172.473 20.4969 172.786C20.6697 173.056 20.8276 173.336 20.9699 173.624C21.0903 173.858 21.1974 174.099 21.2906 174.345C21.371 174.528 21.4393 174.715 21.495 174.906C21.5544 175.066 21.5987 175.231 21.6273 175.399C21.5832 175.399 21.3908 174.71 20.8496 173.684C20.7023 173.408 20.5403 173.14 20.3646 172.882C20.1692 172.578 19.9578 172.285 19.7312 172.004C18.6827 170.708 17.3455 169.676 15.8266 168.989C15.4779 168.837 15.1452 168.693 14.8204 168.589C14.5223 168.48 14.2186 168.388 13.9105 168.312C12.788 168.003 12.0624 167.967 12.0664 167.923Z" fill="#263238"/>
<path d="M194.036 42.2844C192.858 42.553 192.285 43.912 192.172 45.1146C192.06 46.3173 192.212 47.592 191.707 48.6905C191.138 49.9251 189.779 50.8392 189.735 52.1981C189.707 53.0279 190.2 53.8016 190.176 54.6395C190.136 56.0024 188.749 57.0447 188.673 58.3917C188.621 59.3738 189.274 60.3119 189.118 61.282C188.997 62.0356 188.408 62.6289 188.16 63.3505C187.666 64.7937 188.657 66.3771 189.943 67.1869C190.664 67.6401 191.476 67.9305 192.32 68.0377C193.165 68.1449 194.023 68.0663 194.834 67.8075C195.646 67.5486 196.391 67.1158 197.017 66.5391C197.644 65.9625 198.137 65.256 198.462 64.469C199.176 62.7372 199.019 60.7849 198.863 58.9208C198.382 53.1054 198.024 47.282 197.789 41.4506" fill="#263238"/>
<path d="M190.613 62.8013C190.855 62.6506 191.044 62.4277 191.154 62.1639C191.269 61.8502 191.316 61.5151 191.29 61.1818C191.246 60.7398 191.148 60.3049 190.997 59.8869C190.806 59.3616 190.734 58.7999 190.789 58.2433C190.889 57.618 191.338 57.1048 191.743 56.5997C191.961 56.3525 192.143 56.0759 192.284 55.7779C192.425 55.4766 192.448 55.1332 192.348 54.8158C192.14 54.1624 191.498 53.6814 191.206 52.9237C191.068 52.5486 191.046 52.141 191.142 51.7531C191.233 51.3895 191.367 51.0382 191.543 50.7069C191.881 50.1102 192.15 49.4766 192.344 48.8187C192.625 47.5479 192.493 46.3333 192.685 45.3351C192.792 44.5357 193.147 43.7898 193.699 43.2024C193.856 43.0442 194.034 42.9092 194.228 42.8016C194.295 42.7666 194.367 42.741 194.441 42.7254C194.19 42.8637 193.959 43.0364 193.755 43.2385C193.243 43.8317 192.921 44.5648 192.829 45.3431C192.759 45.8748 192.722 46.4103 192.717 46.9466C192.716 47.5778 192.654 48.2074 192.533 48.8267C192.341 49.4998 192.072 50.1482 191.731 50.759C191.43 51.3883 191.154 52.126 191.418 52.8155C191.683 53.505 192.32 53.982 192.565 54.7196C192.675 55.084 192.648 55.4763 192.489 55.822C192.332 56.1499 192.13 56.4537 191.887 56.724C191.486 57.2291 191.049 57.7102 190.953 58.2714C190.897 58.8037 190.96 59.3419 191.138 59.8468C191.281 60.2777 191.37 60.7248 191.402 61.1777C191.422 61.5266 191.36 61.8752 191.222 62.196C191.136 62.3971 190.997 62.5715 190.821 62.7011C190.758 62.747 190.688 62.781 190.613 62.8013Z" fill="#455A64"/>
<path d="M187.478 72.3061L183.87 82.7289L168.781 83.5306L166.264 89.1429L182.018 90.7464C182.762 91.052 183.561 91.2035 184.366 91.1918C185.17 91.1801 185.964 91.0054 186.699 90.6783C187.434 90.3512 188.095 89.8785 188.643 89.2887C189.19 88.6989 189.612 88.0043 189.883 87.2468L194.089 75.5091L187.478 72.3061Z" fill="#B78876"/>
<path d="M218.67 170.653C218.67 170.653 207.614 135.528 207.377 134.39C207.165 133.356 211.386 108.08 211.923 101.518L196.983 102.075V102.224L190.633 102.576L196.317 174.381H203.192L202.511 150.549C206.752 161.93 212.829 173.531 212.829 173.531L218.67 170.653Z" fill="#B78876"/>
<path d="M202.791 159.1C202.791 158.883 202.707 151.114 202.707 151.114C202.623 151.579 200.073 144.372 200.134 143.935C200.166 143.706 202.791 159.1 202.791 159.1Z" fill="#A36957"/>
<path d="M199.845 140.519C199.81 140.662 199.795 140.809 199.801 140.956C199.779 141.357 199.779 141.758 199.801 142.159C199.801 142.411 199.837 142.684 199.869 142.981C199.901 143.277 199.945 143.59 200.013 143.915C200.156 144.624 200.345 145.323 200.579 146.007C201.076 147.462 201.629 148.733 202.018 149.655C202.202 150.056 202.362 150.437 202.499 150.742C202.548 150.883 202.615 151.018 202.699 151.143C202.678 151.004 202.637 150.869 202.579 150.742C202.487 150.477 202.346 150.096 202.178 149.627C201.825 148.689 201.296 147.406 200.803 145.967C200.57 145.293 200.378 144.605 200.23 143.907C200.158 143.586 200.109 143.277 200.065 142.989C200.021 142.7 199.989 142.427 199.969 142.187C199.921 141.69 199.901 141.289 199.889 141.008C199.897 140.844 199.882 140.68 199.845 140.519Z" fill="#A36957"/>
<path d="M196.189 174.746V174.101L203.232 173.792L203.252 176.458L202.819 176.486C200.883 176.598 192.978 176.927 191.687 176.538C190.24 176.105 196.189 174.746 196.189 174.746Z" fill="#455A64"/>
<path d="M203.345 176.297C203.305 176.3 203.264 176.3 203.224 176.297L202.88 176.322L201.605 176.378C200.53 176.422 199.043 176.462 197.404 176.47C195.764 176.478 194.273 176.45 193.194 176.418L191.924 176.366H191.575H191.455C191.495 176.362 191.535 176.362 191.575 176.366H191.924L193.198 176.39C194.273 176.39 195.76 176.422 197.4 176.414C199.039 176.406 200.53 176.378 201.605 176.35L202.88 176.318H203.345V176.297Z" fill="#263238"/>
<path d="M193.892 176.522C193.834 176.312 193.753 176.109 193.652 175.917C193.525 175.739 193.378 175.576 193.215 175.432C193.433 175.51 193.615 175.667 193.724 175.873C193.856 176.062 193.916 176.292 193.892 176.522Z" fill="#263238"/>
<path d="M195.968 175.468C195.968 175.468 195.852 175.359 195.748 175.199C195.644 175.039 195.58 174.898 195.6 174.886C195.62 174.874 195.716 174.991 195.82 175.151C195.924 175.311 195.988 175.456 195.968 175.468Z" fill="#263238"/>
<path d="M196.538 175.183C196.538 175.203 196.41 175.127 196.289 175.019C196.169 174.91 196.081 174.81 196.097 174.794C196.113 174.778 196.225 174.85 196.345 174.958C196.466 175.067 196.554 175.147 196.538 175.183Z" fill="#263238"/>
<path d="M196.894 174.502C196.777 174.545 196.651 174.561 196.526 174.55C196.403 174.566 196.278 174.554 196.161 174.514C196.277 174.471 196.402 174.454 196.526 174.465C196.65 174.449 196.776 174.461 196.894 174.502Z" fill="#263238"/>
<path d="M197.015 174.037C196.895 174.114 196.756 174.156 196.614 174.157C196.478 174.175 196.339 174.155 196.213 174.101C196.346 174.078 196.48 174.068 196.614 174.069C196.746 174.045 196.881 174.034 197.015 174.037Z" fill="#263238"/>
<path d="M195.732 174.854C195.582 174.882 195.429 174.882 195.279 174.854C195.117 174.835 194.957 174.8 194.802 174.75C194.706 174.724 194.613 174.686 194.525 174.638C194.472 174.606 194.432 174.557 194.413 174.498C194.406 174.464 194.408 174.429 194.42 174.397C194.432 174.365 194.454 174.337 194.481 174.317C194.592 174.263 194.714 174.235 194.837 174.234C194.961 174.233 195.083 174.259 195.195 174.311C195.307 174.363 195.406 174.439 195.485 174.533C195.564 174.628 195.621 174.739 195.652 174.858C195.66 174.898 195.66 174.939 195.652 174.979C195.606 174.834 195.536 174.698 195.443 174.578C195.337 174.458 195.197 174.371 195.042 174.329C194.865 174.272 194.672 174.286 194.505 174.369C194.437 174.421 194.465 174.506 194.541 174.554C194.623 174.598 194.709 174.634 194.798 174.662C194.949 174.712 195.103 174.75 195.259 174.778C195.56 174.842 195.732 174.842 195.732 174.854Z" fill="#263238"/>
<path d="M195.616 174.878C195.557 174.785 195.537 174.673 195.56 174.566C195.574 174.448 195.617 174.335 195.684 174.237C195.722 174.17 195.775 174.114 195.841 174.073C195.906 174.032 195.98 174.009 196.057 174.004C196.102 174.015 196.142 174.042 196.168 174.081C196.194 174.12 196.204 174.167 196.197 174.213C196.187 174.285 196.161 174.353 196.121 174.413C196.06 174.513 195.989 174.605 195.909 174.69C195.839 174.77 195.751 174.832 195.652 174.87C195.652 174.87 195.74 174.79 195.864 174.646C195.936 174.563 196 174.473 196.053 174.377C196.113 174.281 196.157 174.109 196.053 174.089C195.949 174.069 195.828 174.193 195.76 174.281C195.696 174.368 195.653 174.468 195.632 174.574C195.616 174.674 195.61 174.777 195.616 174.878Z" fill="#263238"/>
<path d="M203.196 174.381C203.196 174.381 202.996 174.381 202.679 174.401C202.267 174.451 201.876 174.615 201.553 174.875C201.229 175.135 200.984 175.48 200.847 175.872C200.743 176.173 200.735 176.378 200.719 176.374C200.703 176.37 200.719 176.321 200.719 176.233C200.729 176.104 200.753 175.976 200.791 175.852C200.919 175.442 201.164 175.078 201.496 174.806C201.833 174.539 202.242 174.379 202.671 174.345C202.804 174.329 202.939 174.329 203.072 174.345C203.115 174.352 203.157 174.364 203.196 174.381Z" fill="#263238"/>
<path d="M199.825 175.736C199.489 175.815 199.144 175.848 198.799 175.837C198.455 175.854 198.112 175.824 197.776 175.748C197.776 175.724 198.233 175.748 198.799 175.748C199.364 175.748 199.821 175.712 199.825 175.736Z" fill="#263238"/>
<path d="M201.196 175.724C201.196 175.724 201.16 175.82 201.112 175.925C201.064 176.029 201.04 176.125 201.015 176.121C200.991 176.117 200.979 176.013 201.036 175.889C201.092 175.764 201.18 175.704 201.196 175.724Z" fill="#263238"/>
<path d="M201.713 175.079C201.713 175.079 201.685 175.167 201.613 175.239C201.54 175.311 201.468 175.359 201.448 175.343C201.428 175.327 201.476 175.255 201.548 175.179C201.621 175.103 201.693 175.059 201.713 175.079Z" fill="#263238"/>
<path d="M202.451 174.782C202.451 174.806 202.354 174.806 202.25 174.842C202.146 174.878 202.074 174.935 202.054 174.918C202.034 174.902 202.094 174.806 202.222 174.762C202.35 174.718 202.459 174.758 202.451 174.782Z" fill="#263238"/>
<path d="M202.976 174.638C202.976 174.662 202.948 174.698 202.888 174.718C202.828 174.738 202.775 174.742 202.767 174.718C202.759 174.694 202.799 174.658 202.856 174.638C202.912 174.618 202.968 174.618 202.976 174.638Z" fill="#263238"/>
<path d="M212.689 174.125L212.425 173.535L218.722 170.373L219.833 172.778L219.432 172.982C217.712 173.876 210.637 177.412 209.298 177.588C207.818 177.801 212.689 174.125 212.689 174.125Z" fill="#455A64"/>
<path d="M219.857 172.605L219.753 172.67L219.444 172.83L218.306 173.407C217.343 173.884 216.005 174.53 214.509 175.211C213.014 175.893 211.643 176.474 210.649 176.887L209.466 177.364L209.146 177.488C209.109 177.505 209.069 177.517 209.029 177.524L209.138 177.472L209.454 177.332L210.625 176.831C211.615 176.406 212.978 175.812 214.473 175.131C215.968 174.449 217.311 173.816 218.282 173.351L219.428 172.802L219.745 172.654L219.857 172.605Z" fill="#263238"/>
<path d="M211.338 176.682C211.199 176.513 211.042 176.36 210.869 176.225C210.681 176.114 210.481 176.025 210.272 175.961C210.502 175.958 210.728 176.025 210.918 176.154C211.109 176.283 211.255 176.467 211.338 176.682Z" fill="#263238"/>
<path d="M212.785 174.87C212.785 174.87 212.633 174.822 212.472 174.718C212.312 174.614 212.196 174.514 212.208 174.493C212.22 174.473 212.36 174.542 212.521 174.646C212.681 174.75 212.797 174.85 212.785 174.87Z" fill="#263238"/>
<path d="M213.178 174.381C213.178 174.401 213.042 174.381 212.886 174.333C212.729 174.285 212.613 174.225 212.617 174.201C212.718 174.191 212.821 174.208 212.914 174.249C213.066 174.285 213.186 174.341 213.178 174.381Z" fill="#263238"/>
<path d="M213.234 173.612C213.234 173.636 213.102 173.72 212.917 173.808C212.811 173.872 212.692 173.912 212.569 173.924C212.569 173.9 212.701 173.816 212.881 173.728C212.989 173.664 213.109 173.625 213.234 173.612Z" fill="#263238"/>
<path d="M213.154 173.139C213.154 173.139 213.038 173.299 212.829 173.415C212.711 173.495 212.571 173.537 212.428 173.535C212.543 173.458 212.666 173.392 212.793 173.339C212.99 173.231 213.134 173.119 213.154 173.139Z" fill="#263238"/>
<path d="M212.332 174.413C212.21 174.497 212.075 174.56 211.931 174.598C211.774 174.644 211.613 174.677 211.45 174.698C211.352 174.71 211.252 174.71 211.154 174.698C211.092 174.693 211.034 174.665 210.993 174.618C210.975 174.589 210.965 174.556 210.965 174.522C210.965 174.488 210.975 174.454 210.993 174.425C211.115 174.278 211.285 174.177 211.473 174.141C211.661 174.104 211.855 174.134 212.024 174.225C212.123 174.277 212.21 174.349 212.28 174.437C212.328 174.502 212.348 174.542 212.344 174.546C212.246 174.435 212.127 174.344 211.996 174.277C211.854 174.211 211.697 174.187 211.543 174.209C211.451 174.219 211.362 174.246 211.28 174.29C211.199 174.334 211.128 174.394 211.07 174.466C211.025 174.542 211.07 174.606 211.178 174.618C211.27 174.626 211.362 174.626 211.454 174.618C211.614 174.602 211.772 174.574 211.927 174.534C212.156 174.47 212.332 174.401 212.332 174.413Z" fill="#263238"/>
<path d="M212.22 174.482C212.131 174.418 212.068 174.324 212.044 174.217C212.008 174.104 212 173.985 212.02 173.868C212.026 173.791 212.053 173.717 212.096 173.653C212.14 173.59 212.199 173.538 212.268 173.503C212.368 173.471 212.601 173.676 212.617 173.752C212.633 173.828 212.501 173.788 212.493 173.852C212.48 173.966 212.453 174.078 212.412 174.185C212.383 174.288 212.328 174.382 212.252 174.457C212.252 174.457 212.3 174.349 212.356 174.169C212.385 174.062 212.405 173.954 212.416 173.844C212.416 173.732 212.416 173.56 212.288 173.588C212.16 173.616 212.124 173.772 212.096 173.884C212.071 173.988 212.071 174.097 212.096 174.201C212.129 174.298 212.17 174.392 212.22 174.482Z" fill="#263238"/>
<path d="M218.935 170.918C218.935 170.918 218.742 170.986 218.47 171.15C218.113 171.363 217.823 171.671 217.632 172.04C217.446 172.412 217.367 172.828 217.404 173.243C217.428 173.563 217.504 173.748 217.488 173.756C217.462 173.716 217.442 173.673 217.428 173.628C217.388 173.505 217.36 173.379 217.343 173.251C217.286 172.824 217.36 172.39 217.555 172.006C217.751 171.622 218.059 171.307 218.438 171.102C218.551 171.039 218.671 170.988 218.795 170.95C218.839 170.932 218.887 170.921 218.935 170.918Z" fill="#263238"/>
<path d="M216.413 173.539C215.848 173.933 215.216 174.22 214.549 174.389C214.549 174.365 214.97 174.205 215.483 173.988C215.996 173.772 216.401 173.519 216.413 173.539Z" fill="#263238"/>
<path d="M217.66 172.966C217.68 172.966 217.66 173.066 217.66 173.183C217.66 173.299 217.66 173.395 217.66 173.403C217.66 173.411 217.58 173.315 217.58 173.183C217.58 173.05 217.64 172.954 217.66 172.966Z" fill="#263238"/>
<path d="M217.864 172.164C217.884 172.164 217.864 172.257 217.84 172.353C217.816 172.449 217.756 172.521 217.736 172.513C217.716 172.505 217.736 172.421 217.76 172.325C217.784 172.229 217.84 172.156 217.864 172.164Z" fill="#263238"/>
<path d="M218.418 171.575C218.418 171.599 218.337 171.635 218.257 171.711C218.177 171.788 218.133 171.868 218.113 171.86C218.093 171.852 218.113 171.739 218.201 171.647C218.289 171.555 218.413 171.575 218.418 171.575Z" fill="#263238"/>
<path d="M218.839 171.246C218.839 171.246 218.839 171.311 218.791 171.355C218.742 171.399 218.698 171.423 218.682 171.407C218.666 171.391 218.682 171.343 218.73 171.299C218.778 171.254 218.823 171.23 218.839 171.246Z" fill="#263238"/>
<path d="M210.953 89.652L209.783 75.3407L215.796 75.449C215.796 75.449 216.072 73.3363 215.186 68.7102C214.641 65.872 212.753 64.1322 210.632 63.098V63.0579L210.448 63.0098C208.702 62.226 206.838 61.7396 204.932 61.5706L197.536 61.6548C197.536 61.6548 191.887 60.9332 188.773 64.9781C187.57 66.5295 183.838 77.1487 183.838 77.1487L192.717 81.422L191.887 75.5331C191.887 75.5331 192.056 79.8025 192.601 81.1454C192.902 81.8991 193.804 84.2402 193.804 84.2402L193.687 91.3036L210.953 89.652Z" fill="#EB5E49"/>
<path d="M206.876 73.2642L205.778 77.9384H216.132L215.451 70.0973L206.876 73.2642Z" fill="#EB5E49"/>
<path d="M216.132 77.9385C215.68 77.8551 215.221 77.8095 214.761 77.8022C213.912 77.7541 212.757 77.71 211.442 77.718C210.127 77.726 208.969 77.7821 208.119 77.8463C207.659 77.8623 207.202 77.9186 206.752 78.0146C207.211 78.0512 207.672 78.0512 208.131 78.0146C208.977 77.9866 210.135 77.9545 211.442 77.9505C212.749 77.9465 213.908 77.9505 214.757 77.9705C215.216 77.9962 215.676 77.9855 216.132 77.9385Z" fill="#263238"/>
<path d="M206.427 70.0612C206.378 70.4601 206.367 70.8629 206.395 71.2638C206.395 71.9975 206.427 73.0077 206.472 74.1261C206.516 75.2446 206.568 76.2588 206.616 76.9884C206.618 77.3925 206.661 77.7955 206.744 78.191C206.793 77.7921 206.804 77.3893 206.776 76.9884C206.776 76.2548 206.744 75.2405 206.7 74.1221C206.656 73.0036 206.604 71.9934 206.556 71.2598C206.554 70.857 206.511 70.4553 206.427 70.0612Z" fill="#263238"/>
<g opacity="0.3">
<path d="M197.007 74.11C197.007 74.11 199.308 91.1754 205.778 90.7224C205.778 90.7224 208.692 90.6903 209.626 88.7541V87.9924L197.007 74.11Z" fill="black"/>
</g>
<g opacity="0.3">
<path d="M206.427 71.0674L205.189 79.4337L205.99 80.9009L207.313 78.0306L206.752 78.0146L206.427 71.0674Z" fill="black"/>
</g>
<path d="M193.768 84.2482C193.691 84.1233 193.631 83.9884 193.591 83.8473C193.491 83.5868 193.359 83.2059 193.19 82.7289C192.789 81.4859 192.458 80.2211 192.2 78.9406C191.943 77.6594 191.78 76.3611 191.711 75.0561C191.687 74.555 191.679 74.1501 191.687 73.8535C191.677 73.7086 191.686 73.5629 191.715 73.4205C191.747 73.4205 191.771 74.0379 191.856 75.024C191.968 76.3172 192.152 77.6033 192.405 78.8765C192.701 80.3677 193.058 81.7026 193.331 82.6607C193.459 83.1057 193.567 83.4865 193.655 83.7992C193.71 83.9439 193.748 84.0946 193.768 84.2482Z" fill="#263238"/>
<path d="M196.382 89.151C196.325 89.151 196.165 88.8022 196.025 88.3492C195.904 88.0716 195.85 87.7695 195.868 87.4673C196.045 87.7122 196.167 87.9926 196.225 88.2891C196.34 88.5613 196.394 88.8557 196.382 89.151Z" fill="#263238"/>
<path d="M197.275 89.0867C196.972 88.2826 196.959 87.3978 197.239 86.5853C197.271 87.0016 197.271 87.4197 197.239 87.836C197.283 88.2514 197.295 88.6695 197.275 89.0867Z" fill="#263238"/>
<path d="M192.898 81.6185C192.87 81.6666 190.805 80.6885 188.284 79.4297C185.762 78.171 183.738 77.1046 183.762 77.0525C183.786 77.0004 185.854 77.9825 188.376 79.2413C190.897 80.5001 192.922 81.5664 192.898 81.6185Z" fill="#263238"/>
<path d="M196.538 63.0378C196.582 61.0094 196.594 58.8767 196.594 58.8767C196.594 58.8767 193.992 58.3756 193.539 54.9521C193.106 51.689 194.317 44.0283 194.317 44.0283C198.117 42.5931 202.066 43.896 204.667 46.9747L204.022 63.4387C203.946 65.3509 202.242 66.8101 200.198 66.7139C198.129 66.6136 196.494 64.97 196.538 63.0378Z" fill="#B78876"/>
<path d="M194.116 50.1497C194.113 50.2621 194.152 50.3716 194.227 50.4558C194.301 50.54 194.405 50.5925 194.517 50.6027C194.574 50.6082 194.632 50.602 194.686 50.5846C194.741 50.5672 194.791 50.5389 194.834 50.5013C194.877 50.4638 194.912 50.4179 194.937 50.3664C194.962 50.3149 194.976 50.2589 194.978 50.2018C194.982 50.0899 194.942 49.9808 194.868 49.8973C194.793 49.8137 194.689 49.762 194.577 49.7528C194.52 49.7442 194.462 49.7479 194.406 49.7639C194.351 49.7799 194.3 49.8077 194.256 49.8454C194.212 49.8831 194.177 49.9298 194.153 49.9823C194.129 50.0348 194.116 50.0919 194.116 50.1497Z" fill="#263238"/>
<path d="M193.956 49.5764C194.008 49.6325 194.357 49.396 194.818 49.412C195.279 49.4281 195.62 49.6686 195.676 49.6125C195.732 49.5563 195.652 49.4842 195.504 49.3679C195.303 49.2225 195.062 49.1427 194.814 49.1394C194.57 49.1301 194.329 49.2005 194.129 49.3399C193.98 49.4481 193.928 49.5483 193.956 49.5764Z" fill="#263238"/>
<path d="M198.891 50.4463C198.886 50.559 198.925 50.669 199 50.7534C199.075 50.8378 199.179 50.8901 199.292 50.8993C199.349 50.908 199.408 50.9042 199.464 50.888C199.519 50.8718 199.571 50.8436 199.615 50.8055C199.659 50.7674 199.694 50.7201 199.718 50.6671C199.741 50.6141 199.753 50.5565 199.753 50.4984C199.757 50.3862 199.718 50.2767 199.643 50.1929C199.568 50.1091 199.464 50.0577 199.352 50.0495C199.295 50.0408 199.236 50.0446 199.181 50.0605C199.125 50.0765 199.074 50.1043 199.03 50.142C198.986 50.1797 198.951 50.2264 198.927 50.2789C198.903 50.3314 198.891 50.3886 198.891 50.4463Z" fill="#263238"/>
<path d="M198.859 49.873C198.911 49.9332 199.26 49.6966 199.721 49.7087C200.182 49.7207 200.523 49.9652 200.583 49.9091C200.643 49.853 200.555 49.7808 200.406 49.6686C200.209 49.5193 199.968 49.4378 199.721 49.4361C199.476 49.4287 199.234 49.4989 199.031 49.6365C198.887 49.7447 198.835 49.845 198.859 49.873Z" fill="#263238"/>
<path d="M197.063 53.3166C196.817 53.232 196.561 53.1795 196.301 53.1603C196.181 53.1603 196.069 53.1162 196.053 53.036C196.043 52.9107 196.074 52.7856 196.141 52.6792L196.518 51.7772C196.868 51.0106 197.157 50.217 197.38 49.4041C196.969 50.1406 196.618 50.9087 196.329 51.7011C196.205 52.0178 196.081 52.3224 195.964 52.6111C195.887 52.7543 195.861 52.9201 195.892 53.0801C195.908 53.1236 195.934 53.1628 195.967 53.1948C196 53.2268 196.041 53.2506 196.085 53.2645C196.151 53.2838 196.22 53.2945 196.289 53.2966C196.545 53.336 196.805 53.3427 197.063 53.3166Z" fill="#263238"/>
<path d="M196.594 58.8768C198.198 58.941 199.788 58.5594 201.188 57.7744C201.188 57.7744 200.021 60.0874 196.618 59.6825L196.594 58.8768Z" fill="#A36957"/>
<path d="M200.366 48.5061C200.27 48.6544 199.909 48.5903 199.508 48.5061C199.107 48.4219 198.754 48.3537 198.706 48.1814C198.658 48.009 199.079 47.7805 199.616 47.8887C200.154 47.997 200.462 48.3778 200.366 48.5061Z" fill="#263238"/>
<path d="M195.688 47.8245C195.652 47.9969 195.267 48.0611 194.826 48.0811C194.385 48.1011 193.996 48.0811 193.944 47.9047C193.892 47.7283 194.265 47.4798 194.798 47.4557C195.331 47.4317 195.724 47.6602 195.688 47.8245Z" fill="#263238"/>
<path d="M197.071 54.4431C197.02 54.4311 196.967 54.4364 196.92 54.4582C196.873 54.48 196.834 54.517 196.81 54.5633C196.788 54.6042 196.776 54.6503 196.776 54.6972C196.777 54.744 196.79 54.7898 196.813 54.8302C196.837 54.8706 196.871 54.9041 196.911 54.9273C196.952 54.9506 196.998 54.9628 197.045 54.9628C197.092 54.9628 197.138 54.9506 197.178 54.9273C197.219 54.9041 197.253 54.8706 197.277 54.8302C197.3 54.7898 197.313 54.744 197.314 54.6972C197.314 54.6503 197.302 54.6042 197.279 54.5633C197.251 54.5095 197.204 54.467 197.148 54.443C197.092 54.4189 197.03 54.4147 196.971 54.431" fill="#A36957"/>
<path d="M197.179 54.4912C197.179 54.4712 197.103 54.3549 196.899 54.399C196.837 54.415 196.782 54.4467 196.737 54.491C196.692 54.5353 196.659 54.5907 196.642 54.6516C196.621 54.7283 196.622 54.8097 196.647 54.8854C196.672 54.9611 196.719 55.0276 196.782 55.0765C196.849 55.1222 196.928 55.1466 197.009 55.1466C197.09 55.1466 197.169 55.1222 197.235 55.0765C197.289 55.0406 197.331 54.9902 197.356 54.9312C197.382 54.8723 197.39 54.8072 197.38 54.7438C197.34 54.5313 197.183 54.4992 197.175 54.5273C197.167 54.5553 197.231 54.6275 197.219 54.7518C197.217 54.7825 197.206 54.8121 197.19 54.8379C197.173 54.8638 197.15 54.8851 197.123 54.9001C197.092 54.918 197.057 54.9275 197.021 54.9275C196.985 54.9275 196.95 54.918 196.919 54.9001C196.891 54.8764 196.869 54.8458 196.857 54.8114C196.844 54.777 196.841 54.7399 196.847 54.7037C196.851 54.672 196.863 54.6419 196.882 54.6161C196.901 54.5902 196.926 54.5694 196.955 54.5553C197.067 54.4872 197.167 54.5193 197.179 54.4912Z" fill="#263238"/>
<path d="M203.112 50.9955C202.711 51.9336 201.717 52.6592 201.853 53.6734C201.942 54.3268 202.363 54.9361 202.282 55.5936C202.178 56.3953 201.324 56.9886 201.2 57.8104C201.052 58.8166 202.034 59.5983 202.423 60.5364C202.996 61.9074 202.266 63.4467 202.246 64.946C202.27 66.0843 202.705 67.1754 203.472 68.0172C204.239 68.859 205.284 69.3943 206.415 69.524C207.329 69.6002 208.36 69.3236 208.821 68.5379C209.222 67.8885 209.133 67.0626 209.366 66.3451C209.719 65.2707 210.741 64.485 210.969 63.3786C211.37 61.3742 208.925 59.6905 209.085 57.638C209.153 56.7601 209.695 55.9985 209.923 55.1486C210.069 54.5901 210.08 54.005 209.956 53.4414C209.832 52.8777 209.576 52.3514 209.21 51.9055C208.604 51.1879 207.73 50.7029 207.205 49.9332C206.624 49.0473 206.604 47.9288 206.403 46.8825C206.134 45.6108 205.547 44.428 204.697 43.4449C203.846 42.4617 202.761 41.7101 201.541 41.2604C200.321 40.8108 199.007 40.6777 197.722 40.8736C196.437 41.0695 195.223 41.588 194.193 42.3807C194.193 42.3807 193.611 45.0225 196.325 45.4674C199.039 45.9124 200.294 45.3993 200.599 46.4857C200.527 46.9332 200.562 47.3914 200.701 47.8227C200.841 48.254 201.08 48.6462 201.4 48.9671C202.507 50.1617 203.561 49.9051 203.112 50.9955Z" fill="#263238"/>
<path d="M207.422 69.3196C207.338 69.3224 207.254 69.3143 207.173 69.2955C206.938 69.2538 206.707 69.1908 206.484 69.1071C205.656 68.7897 204.93 68.2535 204.383 67.5557C203.999 67.0742 203.699 66.5323 203.493 65.9522C203.259 65.2915 203.136 64.5966 203.128 63.8957C203.12 63.1231 203.217 62.353 203.417 61.6067C203.526 61.2125 203.66 60.8256 203.818 60.4482C203.983 60.0725 204.129 59.6885 204.255 59.2977C204.365 58.9125 204.365 58.5042 204.255 58.1191C204.137 57.74 203.986 57.3723 203.802 57.0207C203.616 56.672 203.459 56.3087 203.333 55.9343C203.209 55.5638 203.18 55.1683 203.248 54.7838C203.409 54.0301 203.866 53.4689 204.138 52.8957C204.398 52.365 204.522 51.7783 204.499 51.1879C204.463 50.324 204.149 49.4948 203.605 48.8228C203.394 48.5874 203.168 48.3664 202.928 48.1613C203.209 48.3192 203.46 48.5255 203.669 48.7706C204.253 49.4417 204.597 50.2878 204.648 51.1759C204.681 51.792 204.559 52.4065 204.295 52.9638C204.018 53.5571 203.573 54.1223 203.437 54.8119C203.301 55.5014 203.625 56.2269 203.982 56.9245C204.177 57.2862 204.335 57.6662 204.455 58.059C204.573 58.4784 204.573 58.9224 204.455 59.3418C204.322 59.7462 204.168 60.1436 203.994 60.5324C203.836 60.9016 203.703 61.2805 203.593 61.6668C203.394 62.3943 203.296 63.1456 203.301 63.8997C203.288 65.1841 203.703 66.4363 204.479 67.4595C204.998 68.1486 205.69 68.6891 206.484 69.0269C207.081 69.2594 207.426 69.2955 207.422 69.3196Z" fill="#455A64"/>
<path d="M207.021 49.0913C206.825 49.1419 206.625 49.1714 206.423 49.1795C205.873 49.2383 205.318 49.2235 204.772 49.1354C204.358 49.0741 203.96 48.9308 203.602 48.714C203.244 48.4972 202.933 48.2111 202.687 47.8726C202.458 47.4443 202.275 46.9928 202.142 46.5257C201.971 46.0591 201.649 45.6627 201.228 45.3992C200.35 44.842 199.32 44.7738 198.422 44.6656C197.594 44.6243 196.789 44.3733 196.085 43.936C195.613 43.6233 195.272 43.1483 195.127 42.6011C195.092 42.4528 195.082 42.2996 195.099 42.1481C195.099 42.0439 195.123 41.9918 195.131 41.9918C195.135 42.1903 195.161 42.3878 195.207 42.581C195.373 43.0927 195.713 43.5298 196.169 43.8157C196.861 44.2193 197.642 44.4452 198.442 44.4732C199.34 44.5774 200.406 44.6295 201.344 45.2228C201.803 45.5111 202.153 45.9442 202.338 46.4535C202.464 46.9088 202.637 47.3495 202.856 47.7684C203.322 48.4089 204.022 48.8407 204.804 48.971C205.332 49.0693 205.87 49.1056 206.407 49.0793C206.612 49.0678 206.817 49.0718 207.021 49.0913Z" fill="#455A64"/>
<path d="M206.027 45.8283C205.876 45.8788 205.717 45.9019 205.558 45.8964C204.81 45.9015 204.091 45.6137 203.553 45.0947C203.308 44.8488 203.099 44.5694 202.932 44.2649C202.571 43.6555 202.222 42.9059 201.473 42.5932C200.751 42.3509 199.981 42.2836 199.228 42.3968C198.592 42.4861 197.947 42.4861 197.312 42.3968C196.869 42.3354 196.453 42.1522 196.109 41.8676C196.02 41.7901 195.942 41.7012 195.877 41.603C195.828 41.5336 195.808 41.4975 195.816 41.4948C195.816 41.4948 195.929 41.6231 196.161 41.8035C196.504 42.0473 196.902 42.2016 197.32 42.2525C197.944 42.3228 198.574 42.3121 199.196 42.2204C199.982 42.092 200.788 42.1609 201.541 42.4208C201.928 42.5948 202.26 42.8722 202.499 43.2226C202.71 43.5351 202.904 43.859 203.08 44.1927C203.238 44.4841 203.434 44.7536 203.662 44.9945C203.863 45.1981 204.094 45.3698 204.347 45.5036C204.72 45.6983 205.13 45.8117 205.55 45.8363C205.858 45.8323 206.023 45.8082 206.027 45.8283Z" fill="#455A64"/>
<path d="M208.616 68.4537C208.596 68.4537 208.725 68.1891 208.873 67.692C209.074 66.9942 209.163 66.269 209.137 65.5433C209.108 64.4691 208.815 63.4186 208.284 62.4847C207.991 61.9595 207.546 61.4905 207.181 60.9132C206.988 60.6192 206.852 60.2914 206.78 59.9471C206.717 59.5847 206.747 59.2121 206.869 58.8647C207.093 58.1712 207.494 57.59 207.582 56.9526C207.67 56.3152 207.366 55.7499 207.061 55.2168C206.904 54.9573 206.761 54.6897 206.632 54.415C206.515 54.1486 206.438 53.8662 206.403 53.5772C206.366 53.0678 206.382 52.5558 206.452 52.0498C206.58 51.3346 206.513 50.598 206.259 49.9172C206.146 49.6787 205.985 49.4659 205.786 49.2918C205.786 49.2918 205.806 49.2918 205.834 49.3159C205.882 49.3394 205.925 49.3706 205.963 49.4081C206.119 49.5387 206.247 49.7013 206.335 49.8851C206.625 50.5717 206.716 51.3262 206.596 52.0619C206.541 52.5585 206.534 53.0592 206.576 53.5571C206.675 54.1172 206.897 54.6484 207.225 55.1125C207.396 55.3835 207.543 55.6692 207.662 55.9664C207.789 56.2872 207.83 56.6351 207.783 56.9766C207.686 57.6781 207.273 58.2714 207.065 58.9249C206.956 59.2401 206.927 59.5777 206.981 59.907C207.051 60.2255 207.178 60.5285 207.358 60.801C207.698 61.3582 208.159 61.8352 208.452 62.3844C208.989 63.3499 209.276 64.4346 209.286 65.5393C209.298 66.2788 209.185 67.015 208.949 67.7161C208.885 67.9058 208.807 68.0907 208.717 68.2693C208.692 68.3352 208.658 68.3973 208.616 68.4537Z" fill="#455A64"/>
<path d="M192.288 143.149C192.288 143.149 189.586 117.557 189.43 108.1C189.274 98.6437 193.683 89.3113 193.683 89.3113L210.953 88.5938C210.953 88.5938 214.369 98.1867 214.429 102.224C214.549 110.057 212.348 117.79 212.601 124.003L213.178 143.165" fill="#263238"/>
<path d="M213.759 111.684C213.669 111.762 213.574 111.835 213.475 111.901L213.318 112.009L213.15 112.173C213.001 112.302 212.867 112.445 212.749 112.602C212.192 113.284 211.787 114.506 211.398 116.026C211.199 116.868 210.906 117.686 210.524 118.463C210.408 118.676 210.274 118.878 210.123 119.068C210.051 119.165 209.983 119.269 209.899 119.361L209.634 119.626C209.255 119.98 208.815 120.262 208.335 120.459C207.369 120.884 206.275 121.085 205.281 121.586C204.262 122.134 203.475 123.03 203.064 124.111C202.575 125.198 202.262 126.336 201.861 127.403C201.46 128.469 200.919 129.487 200.057 130.137C199.233 130.709 198.255 131.018 197.251 131.022C196.321 131.079 195.459 131.051 194.686 131.167C193.989 131.239 193.324 131.49 192.753 131.896C192.337 132.222 192.025 132.662 191.855 133.163C191.748 133.479 191.724 133.818 191.787 134.145C191.835 134.37 191.895 134.478 191.883 134.482C191.819 134.381 191.773 134.27 191.747 134.153C191.663 133.819 191.674 133.467 191.779 133.139C191.938 132.613 192.253 132.148 192.681 131.804C193.266 131.363 193.958 131.086 194.686 131.002C195.487 130.874 196.341 130.89 197.259 130.83C198.233 130.824 199.182 130.522 199.981 129.964C200.791 129.256 201.389 128.338 201.709 127.31C202.11 126.256 202.402 125.114 202.912 124.007C203.343 122.882 204.166 121.95 205.229 121.381C206.263 120.868 207.357 120.672 208.299 120.263C208.76 120.072 209.184 119.801 209.55 119.461L209.803 119.209C209.883 119.12 209.951 119.02 210.023 118.928C210.164 118.746 210.289 118.551 210.396 118.347C210.78 117.581 211.077 116.774 211.282 115.942C211.683 114.426 212.12 113.187 212.709 112.502C212.826 112.346 212.961 112.203 213.11 112.077C213.174 112.021 213.23 111.965 213.286 111.921L213.451 111.816C213.551 111.766 213.654 111.722 213.759 111.684Z" fill="#FAFAFA"/>
<path d="M213.864 99.8423C213.882 99.9549 213.89 100.069 213.888 100.183C213.887 100.514 213.846 100.844 213.768 101.165C213.422 102.338 212.744 103.385 211.815 104.18C211.202 104.743 210.53 105.239 209.811 105.659C209.037 106.116 208.183 106.553 207.305 107.05C206.383 107.544 205.524 108.149 204.748 108.85C203.951 109.64 203.295 110.561 202.808 111.572C202.316 112.597 201.755 113.586 201.128 114.534C200.809 114.976 200.441 115.38 200.03 115.737C199.624 116.082 199.179 116.377 198.703 116.615C197.841 117.038 196.944 117.383 196.021 117.645C195.163 117.91 194.361 118.146 193.664 118.447C193.031 118.699 192.428 119.022 191.868 119.409C191.446 119.702 191.067 120.051 190.741 120.447C190.468 120.791 190.241 121.168 190.064 121.57C190.092 121.459 190.13 121.35 190.176 121.245C190.307 120.942 190.476 120.657 190.677 120.395C190.997 119.982 191.375 119.617 191.8 119.313C192.362 118.912 192.969 118.575 193.607 118.311C194.38 117.996 195.168 117.722 195.969 117.489C196.879 117.22 197.764 116.874 198.614 116.455C199.066 116.219 199.489 115.934 199.877 115.605C200.273 115.253 200.628 114.857 200.935 114.426C201.554 113.483 202.11 112.5 202.599 111.484C203.102 110.45 203.78 109.512 204.603 108.71C205.394 107.998 206.269 107.387 207.209 106.89C208.091 106.397 208.945 105.968 209.719 105.515C210.436 105.109 211.108 104.628 211.723 104.08C212.644 103.309 213.328 102.293 213.695 101.149C213.798 100.721 213.855 100.283 213.864 99.8423Z" fill="#FAFAFA"/>
<path d="M189.519 109.439C189.503 109.415 189.491 109.388 189.482 109.359C189.452 109.282 189.427 109.203 189.406 109.123C189.338 108.804 189.351 108.473 189.446 108.161C189.671 107.359 190.557 106.329 191.984 105.819C192.698 105.575 193.503 105.419 194.345 105.21C195.044 105.094 195.705 104.813 196.274 104.39C196.842 103.966 197.301 103.413 197.612 102.777C197.84 102.31 198.04 101.829 198.21 101.338C198.523 100.271 198.949 99.2399 199.48 98.2629C200.089 97.3026 201.013 96.5841 202.094 96.2305C203.077 95.9115 204.08 95.657 205.097 95.4688C206.004 95.2946 206.882 94.9951 207.706 94.5788C208.405 94.1799 209.007 93.6325 209.47 92.9753C210.155 92.0265 210.545 90.8973 210.593 89.7282C210.594 89.2992 210.566 88.8706 210.508 88.4454C210.63 88.8619 210.685 89.2947 210.673 89.7282C210.657 90.9226 210.28 92.0841 209.59 93.0595C209.121 93.7384 208.506 94.304 207.791 94.7151C206.955 95.1469 206.063 95.4587 205.141 95.6412C204.134 95.8323 203.14 96.0881 202.166 96.4068C201.129 96.7468 200.241 97.4369 199.657 98.3591C199.134 99.3228 198.713 100.339 198.402 101.39C198.229 101.89 198.024 102.379 197.789 102.853C197.551 103.309 197.249 103.727 196.891 104.096C196.187 104.738 195.32 105.174 194.385 105.358C193.535 105.575 192.734 105.711 192.032 105.944C190.641 106.417 189.759 107.391 189.523 108.169C189.425 108.468 189.399 108.787 189.446 109.099C189.48 109.21 189.504 109.324 189.519 109.439Z" fill="#FAFAFA"/>
<path d="M212.38 131.087C212.397 131.17 212.406 131.254 212.408 131.339C212.416 131.582 212.39 131.825 212.332 132.061C212.08 132.93 211.548 133.691 210.817 134.225C210.329 134.614 209.789 134.933 209.213 135.172C208.6 135.432 207.923 135.641 207.209 135.861C206.468 136.077 205.744 136.345 205.04 136.663C204.31 137.012 203.655 137.501 203.112 138.102C202.527 138.711 202.022 139.381 201.461 139.974C200.924 140.549 200.3 141.036 199.612 141.417C198.442 142.056 197.133 142.397 195.8 142.411C194.907 142.421 194.02 142.273 193.178 141.974C192.95 141.896 192.728 141.801 192.513 141.69C192.435 141.657 192.361 141.616 192.292 141.566C192.373 141.588 192.452 141.616 192.529 141.65C192.749 141.744 192.974 141.827 193.202 141.898C194.042 142.162 194.92 142.285 195.8 142.263C197.104 142.229 198.38 141.881 199.52 141.249C200.186 140.872 200.791 140.394 201.312 139.834C201.861 139.248 202.362 138.583 202.96 137.958C203.534 137.334 204.226 136.83 204.996 136.474C205.71 136.156 206.445 135.888 207.197 135.673C207.903 135.456 208.576 135.272 209.201 135.007C209.761 134.778 210.287 134.475 210.765 134.105C211.483 133.598 212.019 132.872 212.292 132.037C212.351 131.723 212.381 131.405 212.38 131.087Z" fill="#FAFAFA"/>
<path d="M210.412 77.9544L207.069 78.0346C206.94 78.7088 206.685 79.3523 206.315 79.9308C203.509 75.0802 201.356 68.586 200.819 65.9763C200.899 65.7157 200.992 65.4271 201.108 65.1063C201.191 64.6192 201.176 64.1204 201.064 63.6391C200.968 63.0579 200.807 62.2762 200.759 61.9154C200.611 60.809 200.43 60.6366 200.046 60.7609C199.524 60.9332 200.262 63.8596 199.833 63.9238C199.601 63.9558 199.32 62.9536 199.24 62.1318C199.16 61.3101 198.783 58.7765 198.514 58.6081C198.113 58.3596 197.765 58.7525 197.869 59.5702C197.973 60.388 198.097 62.8735 197.664 62.9095C197.231 62.9456 196.863 58.7444 196.863 58.7444C196.863 58.7444 196.931 57.8304 196.426 57.8505C195.52 57.8906 196.229 62.3162 196.305 62.7372C196.361 63.0258 195.904 63.0819 195.848 62.7652C195.792 62.4485 195.584 58.5681 194.646 58.6001C193.932 58.6001 195.195 62.2441 194.794 63.0859C194.393 63.9278 194.121 60.2317 193.443 60.2798C193.191 60.2998 193.002 60.3479 193.467 62.4365C193.913 64.0959 194.448 65.7299 195.071 67.3312C196.145 73.1239 200.859 91.6564 208.247 88.265C212.385 86.3648 214.06 77.9544 214.06 77.9544H210.412Z" fill="#B78876"/>
<path d="M196.161 63.0178C196.192 63.0258 196.226 63.0258 196.257 63.0178C196.305 63.003 196.347 62.9715 196.374 62.9289C196.401 62.8863 196.412 62.8354 196.405 62.7853C196.405 62.5368 196.357 62.176 196.301 61.7069C196.207 61.1417 196.146 60.5715 196.117 59.9992C196.117 59.6625 196.117 59.3017 196.137 58.9209C196.143 58.7272 196.163 58.5343 196.197 58.3436C196.229 58.1632 196.349 57.9427 196.49 57.9788H196.514C196.654 57.9788 196.766 58.083 196.81 58.2514C196.86 58.4259 196.879 58.6076 196.866 58.7886C196.949 59.9112 197.092 61.0286 197.295 62.1359C197.327 62.2842 197.36 62.4365 197.408 62.5889C197.429 62.6668 197.456 62.7432 197.488 62.8174C197.508 62.8587 197.531 62.8988 197.556 62.9376C197.574 62.9669 197.599 62.9916 197.628 63.0097C197.657 63.0278 197.69 63.0388 197.724 63.0419C197.783 63.0354 197.838 63.0118 197.883 62.974C197.928 62.9362 197.961 62.8858 197.977 62.8294C198.011 62.751 198.037 62.669 198.053 62.5849C198.084 62.4233 198.106 62.26 198.117 62.0958C198.154 61.4278 198.144 60.7581 198.089 60.0914C198.038 59.7585 198.025 59.4211 198.049 59.0852C198.064 58.9401 198.134 58.8064 198.245 58.7124C198.271 58.6971 198.3 58.6874 198.33 58.684C198.359 58.6805 198.389 58.6834 198.418 58.6924C198.452 58.7005 198.484 58.714 198.514 58.7324C198.534 58.7477 198.55 58.7686 198.558 58.7926C198.684 59.1177 198.777 59.4548 198.835 59.7988C198.907 60.1515 198.967 60.5163 199.023 60.8811C199.079 61.2459 199.131 61.6147 199.176 61.9876C199.21 62.3723 199.271 62.7541 199.36 63.1301C199.407 63.3223 199.468 63.5111 199.54 63.6953C199.581 63.7984 199.638 63.8944 199.709 63.9799C199.736 64.0155 199.772 64.0426 199.814 64.0582C199.856 64.0738 199.901 64.0773 199.945 64.0681C199.986 64.0547 200.022 64.0311 200.051 63.9995C200.08 63.9679 200.1 63.9294 200.11 63.8877C200.157 63.6829 200.172 63.4718 200.154 63.2623C200.154 63.0619 200.13 62.8615 200.11 62.6691C200.081 62.3323 200.049 61.9996 200.037 61.6709C200.027 61.5093 200.027 61.3473 200.037 61.1858C200.045 61.1143 200.063 61.0442 200.09 60.9774C200.098 60.9553 200.11 60.9349 200.126 60.9172H200.178C200.442 60.809 200.53 61.1778 200.603 61.4744C200.675 61.7711 200.703 62.1078 200.767 62.4245C200.871 63.0539 201.008 63.6833 201.076 64.2846C201.122 64.5725 201.111 64.8668 201.044 65.1505C200.947 65.4391 200.851 65.7237 200.759 66.0084V66.0364V66.0605C201.229 68.0299 201.827 69.9663 202.551 71.8571C203.184 73.5689 203.822 75.0642 204.379 76.2668C204.936 77.4694 205.441 78.4115 205.786 79.0449L206.187 79.7624C206.23 79.8479 206.283 79.9286 206.343 80.003C206.309 79.9139 206.268 79.828 206.219 79.7464L205.818 79.0128C205.489 78.3674 205.016 77.4093 204.471 76.2067C203.926 75.004 203.309 73.5088 202.691 71.797C201.985 69.909 201.398 67.9783 200.935 66.0164V66.0725C201.028 65.7919 201.12 65.5073 201.216 65.2226C201.299 64.9102 201.316 64.5837 201.264 64.2645C201.192 63.6352 201.06 63.0258 200.955 62.3924C200.895 62.0798 200.855 61.7591 200.791 61.4303C200.787 61.2615 200.759 61.0941 200.707 60.9333C200.661 60.8355 200.583 60.7562 200.486 60.7088C200.383 60.6751 200.273 60.6751 200.17 60.7088H200.106C200.072 60.7196 200.04 60.7374 200.013 60.7609C199.969 60.7986 199.934 60.8468 199.913 60.9012C199.876 60.988 199.853 61.0799 199.845 61.1738C199.833 61.3473 199.833 61.5214 199.845 61.6949C199.845 62.0317 199.893 62.3684 199.921 62.7051C199.921 62.9016 199.953 63.106 199.961 63.2864C199.977 63.4672 199.968 63.6494 199.933 63.8276C199.933 63.8677 199.901 63.8597 199.933 63.8797L199.909 63.8556C199.858 63.7901 199.817 63.7171 199.789 63.6392C199.719 63.4658 199.661 63.2876 199.616 63.106C199.528 62.7409 199.468 62.3697 199.436 61.9956C199.393 61.6188 199.341 61.2459 199.28 60.8771C199.224 60.5083 199.159 60.1475 199.087 59.7867C199.027 59.4195 198.925 59.0604 198.783 58.7164C198.755 58.6589 198.712 58.6103 198.658 58.5761C198.612 58.549 198.562 58.5275 198.51 58.512C198.453 58.497 198.393 58.4935 198.335 58.5017C198.276 58.51 198.22 58.5298 198.169 58.5601C198.087 58.6218 198.018 58.7 197.967 58.7897C197.916 58.8794 197.884 58.9786 197.873 59.0812C197.847 59.2634 197.847 59.4483 197.873 59.6304C197.873 59.8028 197.913 59.9712 197.925 60.1395C197.981 60.7954 197.993 61.4543 197.961 62.1118C197.951 62.268 197.931 62.4234 197.901 62.5769C197.889 62.6485 197.869 62.7185 197.841 62.7853C197.83 62.8117 197.815 62.8362 197.796 62.8575C197.796 62.8935 197.768 62.8575 197.772 62.9056C197.772 62.8655 197.772 62.9056 197.772 62.8535C197.755 62.8264 197.739 62.7983 197.724 62.7693C197.696 62.7051 197.672 62.633 197.648 62.5648C197.604 62.4205 197.572 62.2722 197.54 62.1279C197.331 61.0302 197.18 59.9222 197.087 58.8086C197.099 58.6071 197.076 58.405 197.019 58.2113C196.992 58.1103 196.938 58.0187 196.862 57.9467C196.823 57.9088 196.777 57.8793 196.726 57.86C196.675 57.8407 196.62 57.832 196.566 57.8345H196.59C196.522 57.8246 196.453 57.8349 196.391 57.8641C196.329 57.8933 196.277 57.9402 196.241 57.9988C196.181 58.0945 196.141 58.2006 196.121 58.3115C196.087 58.5103 196.068 58.7113 196.065 58.9128C196.065 59.3137 196.065 59.6625 196.065 60.0032C196.103 60.5791 196.176 61.1522 196.285 61.719C196.353 62.184 196.405 62.5448 196.43 62.7893C196.437 62.8321 196.43 62.8763 196.409 62.9143C196.387 62.9523 196.354 62.9818 196.313 62.9978C196.193 63.0098 196.157 63.0138 196.161 63.0178Z" fill="#A36957"/>
<path d="M170.052 83.4745C169.269 83.4578 168.488 83.5482 167.731 83.7431C165.658 84.2883 162.086 86.453 161.938 89.1268H164.536C164.536 89.1268 163.08 92.2216 163.505 91.933C164.616 91.1874 166.821 88.9465 166.821 88.9465L170.052 83.4745Z" fill="#B78876"/>
<path d="M205.461 36.8807C205.401 36.8807 205.169 34.74 204.936 32.0702C204.704 29.4003 204.559 27.2596 204.615 27.2596C204.672 27.2596 204.908 29.4003 205.141 32.0702C205.373 34.74 205.517 36.8807 205.461 36.8807Z" fill="#263238"/>
<path d="M216.85 27.424C216.894 27.4561 215.142 30.0016 212.933 33.1084C210.725 36.2152 208.893 38.7207 208.844 38.6726C208.796 38.6245 210.552 36.095 212.761 32.9882C214.97 29.8814 216.802 27.3919 216.85 27.424Z" fill="#263238"/>
<path d="M221.581 38.9612C221.581 39.0173 219.544 39.4864 217.011 40.0075C214.477 40.5287 212.409 40.9055 212.397 40.8494C212.385 40.7932 214.429 40.3242 216.967 39.8031C219.504 39.2819 221.553 38.9051 221.581 38.9612Z" fill="#263238"/>
<path d="M85.2543 94.0215L71.0633 166.901L69.2192 176.442L163.826 175.985C168.075 175.965 171.844 172.192 173.203 166.588L189.983 97.7857C191.022 93.5324 188.745 89.1068 185.522 89.1108L89.7441 89.211C87.6596 89.207 85.7915 91.1793 85.2543 94.0215Z" fill="#EB5E49"/>
<g opacity="0.5">
<path d="M85.2543 94.0215L71.0633 166.901L69.2192 176.442L163.826 175.985C168.075 175.965 171.844 172.192 173.203 166.588L189.983 97.7857C191.022 93.5324 188.745 89.1068 185.522 89.1108L89.7441 89.211C87.6596 89.207 85.7915 91.1793 85.2543 94.0215Z" fill="black"/>
</g>
<path d="M154.762 161.954L144.74 81.2136C144.34 77.9063 141.698 75.4369 138.583 75.449L116.615 75.5171C115.799 75.5263 114.993 75.7017 114.246 76.0325C113.5 76.3633 112.829 76.8426 112.273 77.4413L101.851 88.5336L40.7571 88.8623C37.025 88.8823 34.1547 92.4181 34.6478 96.3867L43.9521 171.01C44.353 174.313 46.9948 176.778 50.1016 176.774L156.594 176.562C168.452 176.807 169.587 173.307 169.587 173.307C155.973 176.317 154.762 161.974 154.762 161.954Z" fill="#EB5E49"/>
<g opacity="0.5">
<path d="M108.842 145.807L105.25 149.663L77.5896 124.777L81.1814 120.92L108.842 145.807Z" fill="white"/>
<path d="M103.747 120.067L107.715 123.638L82.6885 150.517L78.7158 146.945L103.747 120.067Z" fill="white"/>
</g>
<path d="M169.968 41.603C169.838 41.5483 169.726 41.4578 169.646 41.3421C169.566 41.2264 169.52 41.0902 169.515 40.9496L169.354 37.2294C169.349 37.1138 169.37 36.9985 169.417 36.8926C169.463 36.7867 169.534 36.693 169.623 36.6191C169.712 36.5452 169.817 36.4931 169.93 36.4668C170.043 36.4405 170.16 36.4409 170.272 36.4678C170.583 36.5347 170.904 36.5376 171.215 36.4763C171.527 36.4149 171.822 36.2906 172.084 36.111C172.325 35.9584 172.533 35.758 172.693 35.5222C172.854 35.2864 172.965 35.0202 173.018 34.74C173.055 34.4563 173.034 34.1681 172.956 33.8927C172.879 33.6172 172.748 33.3601 172.569 33.1365C172.381 32.882 172.145 32.6672 171.874 32.5041C171.603 32.3411 171.303 32.2331 170.99 32.1864C170.359 32.1513 169.735 32.3301 169.218 32.6939C168.702 33.0576 168.323 33.5851 168.144 34.1908C168.084 34.3743 167.955 34.5277 167.785 34.6189C167.615 34.7101 167.416 34.7322 167.23 34.6805C167.044 34.6289 166.885 34.5074 166.787 34.3415C166.688 34.1756 166.657 33.978 166.701 33.7899C166.973 32.8372 167.566 32.0074 168.378 31.4402C169.191 30.8729 170.174 30.6027 171.162 30.6751C171.677 30.7436 172.172 30.9149 172.619 31.1786C173.066 31.4424 173.455 31.7933 173.764 32.2104C174.064 32.5971 174.284 33.0401 174.41 33.5131C174.536 33.9862 174.566 34.4797 174.498 34.9645C174.406 35.4486 174.217 35.9088 173.941 36.317C173.666 36.7251 173.309 37.0725 172.894 37.3377C172.293 37.7426 171.59 37.9716 170.866 37.9991L170.99 40.8694C170.995 40.9955 170.967 41.1207 170.911 41.2335C170.854 41.3463 170.77 41.4429 170.666 41.5145C170.562 41.586 170.442 41.6302 170.316 41.6429C170.191 41.6555 170.064 41.6363 169.948 41.5869L169.968 41.603Z" fill="#EB5E49"/>
<path d="M171.066 43.1263C171.075 43.2474 171.047 43.3682 170.987 43.4735C170.927 43.5789 170.836 43.664 170.728 43.718C170.619 43.7721 170.497 43.7928 170.376 43.7773C170.256 43.7619 170.143 43.7112 170.052 43.6314C169.96 43.5517 169.894 43.4467 169.862 43.3295C169.831 43.2124 169.834 43.0885 169.873 42.9735C169.912 42.8584 169.984 42.7575 170.08 42.6834C170.176 42.6092 170.292 42.5653 170.413 42.557C170.493 42.5511 170.574 42.5611 170.65 42.5865C170.727 42.6119 170.798 42.6523 170.858 42.7052C170.919 42.7582 170.969 42.8227 171.004 42.8949C171.04 42.9672 171.061 43.0458 171.066 43.1263Z" fill="#EB5E49"/>
<path d="M157.088 36.3555C157.105 36.2762 157.117 36.1959 157.124 36.115C157.124 35.9386 157.168 35.7141 157.2 35.3974C157.239 35.0086 157.305 34.6229 157.396 34.2429C157.448 34.0184 157.476 33.7699 157.557 33.5173C157.637 33.2648 157.717 32.9922 157.805 32.7156C158.269 31.3451 158.946 30.0559 159.81 28.8952C160.942 27.3922 162.377 26.1439 164.023 25.2312C164.959 24.7031 165.957 24.2912 166.993 24.0045C168.112 23.708 169.264 23.5571 170.421 23.5555C171.03 23.5457 171.64 23.5779 172.245 23.6517C172.553 23.6838 172.858 23.764 173.167 23.8161C173.479 23.8696 173.787 23.9446 174.089 24.0406C175.352 24.3937 176.554 24.9385 177.653 25.6561C180.095 27.2401 181.955 29.5759 182.952 32.3107C183.489 33.7756 183.761 35.3245 183.754 36.8847C183.77 38.4919 183.486 40.0881 182.916 41.591L182.736 42.048L182.712 42.1081L182.736 42.1682C183.742 44.4813 184.74 46.7542 185.682 48.9551L185.851 48.7626L179.837 46.4576L179.765 46.4295L179.705 46.4857C178.114 48.0269 176.167 49.1507 174.037 49.7568C172.216 50.2579 170.31 50.3674 168.445 50.0778C166.579 49.7883 164.796 49.1064 163.213 48.0771C161.917 47.227 160.774 46.1629 159.834 44.9303C158.471 43.1311 157.588 41.015 157.268 38.7808C157.22 38.3799 157.18 38.0432 157.144 37.7385C157.108 37.4339 157.144 37.1853 157.124 36.9729C157.104 36.7604 157.124 36.6201 157.124 36.5038C157.144 36.5008 157.162 36.4903 157.174 36.4745C157.187 36.4587 157.193 36.4387 157.192 36.4185C157.19 36.3984 157.181 36.3795 157.166 36.3658C157.151 36.352 157.132 36.3444 157.112 36.3444C157.091 36.3444 157.072 36.352 157.057 36.3658C157.042 36.3795 157.033 36.3984 157.032 36.4185C157.03 36.4387 157.036 36.4587 157.049 36.4745C157.062 36.4903 157.08 36.5008 157.1 36.5038C157.1 36.6201 157.1 36.7764 157.1 36.9729C157.1 37.1693 157.1 37.4419 157.1 37.7466C157.1 38.0512 157.168 38.4 157.208 38.7968C157.34 39.7611 157.569 40.7093 157.893 41.627C158.352 42.8389 158.97 43.9847 159.729 45.0345C160.673 46.2891 161.824 47.3736 163.133 48.2415C164.735 49.2965 166.544 49.9986 168.438 50.3013C170.332 50.6041 172.27 50.5004 174.121 49.9973C176.277 49.385 178.249 48.2504 179.861 46.6941L179.729 46.7222L185.742 49.0392L186.043 49.1555L185.911 48.8468C184.957 46.646 183.97 44.377 182.968 42.06V42.1762L183.153 41.7072C183.738 40.1716 184.029 38.5398 184.01 36.8967C184.023 35.3034 183.752 33.7205 183.209 32.2225C182.19 29.4332 180.288 27.053 177.793 25.4437C176.667 24.7093 175.433 24.1548 174.137 23.8001C173.83 23.703 173.517 23.6293 173.199 23.5796C172.886 23.5235 172.577 23.4433 172.265 23.4152C171.652 23.3391 171.034 23.3043 170.417 23.311C169.241 23.316 168.071 23.475 166.937 23.784C165.887 24.0822 164.876 24.5048 163.927 25.0428C162.265 25.9778 160.82 27.2555 159.689 28.791C158.828 29.9709 158.161 31.2809 157.713 32.6715C157.629 32.9601 157.549 33.2367 157.476 33.4732C157.413 33.7149 157.362 33.9598 157.324 34.2068C157.238 34.5894 157.182 34.9781 157.156 35.3694C157.132 35.678 157.116 35.9145 157.104 36.0909C157.087 36.178 157.081 36.267 157.088 36.3555Z" fill="#263238"/>
</svg>
