<svg width="219" height="202" viewBox="0 0 219 202" fill="none" xmlns="http://www.w3.org/2000/svg">
<path d="M218.309 198.057C218.309 198.125 169.435 198.183 109.154 198.183C48.8731 198.183 0 198.125 0 198.057C0 197.99 48.8635 197.932 109.154 197.932C169.445 197.932 218.309 197.99 218.309 198.057Z" fill="#20332B"/>
<path d="M150.034 95.9979L148.102 95.597C146.378 95.0802 145.402 94.858 145.001 94.293C144.47 93.5347 145.484 93.1 145.484 93.1C145.484 93.1 144.296 92.4093 144.572 91.651C144.639 91.5007 144.753 91.3756 144.896 91.294C145.039 91.2124 145.205 91.1785 145.369 91.197C145.369 91.197 144.335 90.5353 144.205 90.0234C144.026 89.3279 144.886 89.1443 144.886 89.1443C143.543 87.8982 143.866 86.9902 144.238 86.9709C144.61 86.9516 145.687 87.7292 145.687 87.7292C146.653 88.2122 149.223 89.5984 148.503 87.8789C147.783 86.1595 147.875 84.5705 148.199 84.1551C148.284 84.0666 148.396 84.0073 148.517 83.9857C148.638 83.9641 148.763 83.9813 148.874 84.0348C148.984 84.0883 149.075 84.1755 149.134 84.2838C149.192 84.3921 149.215 84.5161 149.199 84.6381C149.241 85.266 149.37 85.8851 149.58 86.4783C149.733 86.9602 149.966 87.4126 150.271 87.8161C150.628 88.2991 150.947 88.671 151.237 88.9898L152.633 90.9893L150.034 95.9979Z" fill="#FFBE9D"/>
<path d="M142.596 196.125L144.257 192.619L150.845 195.69L148.469 200.844L148.049 200.68C146.185 199.931 138.621 196.753 137.578 195.816C136.414 194.773 142.596 196.125 142.596 196.125Z" fill="#519075"/>
<g opacity="0.3">
<path d="M146.103 199.675C146.46 199.166 146.993 198.806 147.6 198.666C148.196 198.517 148.827 198.602 149.363 198.902L148.503 200.742L146.103 199.675Z" fill="white"/>
</g>
<g opacity="0.3">
<path d="M139.529 195.56C139.529 195.56 137.307 195.212 137.399 195.652C137.491 196.091 145.016 199.588 148.469 200.844L148.527 200.689L139.718 196.681C139.718 196.681 139.906 195.773 139.529 195.56Z" fill="white"/>
</g>
<path d="M148.629 200.733L148.513 200.694L148.179 200.564L146.957 200.057C145.929 199.622 144.514 199.004 142.973 198.284C141.432 197.564 140.041 196.888 139.046 196.381L137.873 195.773L137.559 195.604L137.448 195.541C137.488 195.551 137.527 195.567 137.563 195.589L137.887 195.744L139.075 196.328C140.075 196.811 141.466 197.487 143.007 198.207C144.547 198.926 145.958 199.55 146.982 199.999L148.189 200.53L148.518 200.675L148.629 200.733Z" fill="#20332B"/>
<path d="M139.674 196.782C139.711 196.56 139.724 196.335 139.713 196.111C139.673 195.887 139.608 195.668 139.52 195.459C139.674 195.639 139.771 195.861 139.799 196.097C139.826 196.333 139.783 196.571 139.674 196.782Z" fill="#20332B"/>
<path d="M142.055 196.705C141.999 196.595 141.968 196.475 141.964 196.352C141.935 196.235 141.935 196.112 141.964 195.995C141.964 195.995 142.026 196.144 142.05 196.342C142.082 196.461 142.084 196.585 142.055 196.705Z" fill="#20332B"/>
<path d="M142.741 196.671C142.717 196.671 142.644 196.56 142.577 196.405C142.509 196.251 142.475 196.12 142.499 196.111C142.524 196.101 142.596 196.217 142.659 196.372C142.712 196.463 142.74 196.566 142.741 196.671Z" fill="#20332B"/>
<path d="M143.364 196.202C143.364 196.227 143.195 196.174 143.002 196.087C142.88 196.046 142.768 195.98 142.673 195.893C142.673 195.869 142.847 195.922 143.036 196.009C143.157 196.05 143.269 196.116 143.364 196.202Z" fill="#20332B"/>
<path d="M143.688 195.821C143.538 195.843 143.384 195.82 143.248 195.753C143.105 195.713 142.977 195.631 142.881 195.517C143.019 195.555 143.154 195.607 143.282 195.671C143.421 195.71 143.557 195.76 143.688 195.821Z" fill="#20332B"/>
<path d="M142.118 196.024C141.968 195.982 141.826 195.915 141.698 195.826C141.553 195.736 141.417 195.633 141.292 195.517C141.216 195.449 141.148 195.373 141.089 195.29C141.053 195.238 141.037 195.174 141.046 195.111C141.052 195.076 141.069 195.044 141.094 195.019C141.119 194.994 141.151 194.977 141.186 194.971C141.313 194.97 141.44 194.997 141.556 195.05C141.672 195.103 141.774 195.181 141.857 195.278C141.939 195.375 142 195.489 142.033 195.612C142.066 195.735 142.072 195.864 142.05 195.99C142.045 196.033 142.03 196.074 142.007 196.111C142.023 195.959 142.015 195.806 141.983 195.657C141.938 195.502 141.851 195.364 141.732 195.256C141.662 195.189 141.581 195.137 141.491 195.102C141.402 195.067 141.306 195.051 141.21 195.053C141.118 195.053 141.109 195.164 141.162 195.246C141.218 195.324 141.283 195.395 141.355 195.459C141.474 195.573 141.602 195.678 141.736 195.773C141.963 195.937 142.123 196.009 142.118 196.024Z" fill="#20332B"/>
<path d="M141.997 195.995C141.989 195.881 142.022 195.768 142.089 195.676C142.154 195.572 142.241 195.485 142.345 195.42C142.411 195.375 142.487 195.347 142.566 195.339C142.645 195.33 142.725 195.342 142.799 195.372C142.837 195.401 142.862 195.444 142.869 195.492C142.876 195.54 142.865 195.588 142.838 195.628C142.797 195.691 142.743 195.744 142.678 195.782C142.58 195.851 142.473 195.906 142.36 195.946C142.258 195.992 142.147 196.012 142.036 196.004C142.036 196.004 142.157 195.966 142.335 195.888C142.44 195.843 142.539 195.785 142.63 195.715C142.731 195.652 142.847 195.512 142.751 195.444C142.654 195.377 142.49 195.444 142.389 195.492C142.291 195.547 142.205 195.621 142.137 195.71C142.085 195.802 142.038 195.897 141.997 195.995Z" fill="#20332B"/>
<path d="M149.334 198.869C149.334 198.869 149.155 198.762 148.851 198.661C148.442 198.526 148.005 198.506 147.585 198.603C147.169 198.71 146.789 198.927 146.484 199.231C146.252 199.467 146.156 199.651 146.141 199.646C146.153 199.597 146.174 199.551 146.204 199.511C146.27 199.394 146.35 199.286 146.441 199.187C146.741 198.857 147.133 198.623 147.566 198.516C148 198.414 148.454 198.444 148.87 198.603C148.995 198.648 149.115 198.706 149.228 198.777C149.3 198.83 149.339 198.864 149.334 198.869Z" fill="#20332B"/>
<path d="M149.928 195.811C149.767 196.282 149.577 196.741 149.358 197.188C149.165 197.649 148.946 198.099 148.701 198.535C148.867 198.065 149.059 197.603 149.276 197.154C149.468 196.694 149.685 196.246 149.928 195.811Z" fill="#20332B"/>
<path d="M145.571 198.671C145.224 198.593 144.886 198.475 144.567 198.318C144.237 198.181 143.926 198.004 143.639 197.792C143.639 197.767 144.069 197.994 144.605 198.236C145.141 198.477 145.581 198.627 145.571 198.671Z" fill="#20332B"/>
<path d="M146.885 199.25C146.885 199.25 146.808 199.323 146.716 199.4C146.624 199.477 146.561 199.554 146.542 199.545C146.523 199.535 146.542 199.424 146.658 199.332C146.774 199.24 146.885 199.226 146.885 199.25Z" fill="#20332B"/>
<path d="M147.634 198.869C147.634 198.869 147.566 198.941 147.469 198.98C147.373 199.018 147.281 199.028 147.271 199.004C147.262 198.98 147.339 198.931 147.436 198.898C147.532 198.864 147.624 198.844 147.634 198.869Z" fill="#20332B"/>
<path d="M148.46 198.917C148.46 198.917 148.358 198.893 148.242 198.883C148.126 198.873 148.039 198.883 148.03 198.883C148.02 198.883 148.117 198.796 148.252 198.811C148.387 198.825 148.474 198.898 148.46 198.917Z" fill="#20332B"/>
<path d="M149.015 199.018C149.015 199.018 148.962 199.057 148.894 199.052C148.827 199.047 148.778 199.023 148.783 198.999C148.788 198.975 148.836 198.96 148.904 198.965C148.972 198.97 149.015 198.994 149.015 199.018Z" fill="#20332B"/>
<path d="M198.163 198.043L196.521 194.527L203.085 191.426L205.543 196.541L205.147 196.763C203.384 197.729 196.116 201.52 194.729 201.728C193.184 201.945 198.163 198.043 198.163 198.043Z" fill="#519075"/>
<g opacity="0.3">
<path d="M203.138 197.603C202.97 197.004 203.032 196.363 203.312 195.806C203.581 195.256 204.046 194.827 204.616 194.604L205.49 196.434L203.138 197.603Z" fill="white"/>
</g>
<g opacity="0.3">
<path d="M195.778 200.047C195.778 200.047 194.092 201.539 194.488 201.747C194.884 201.955 202.375 198.366 205.544 196.526L205.461 196.386L196.768 200.617C196.768 200.617 196.149 199.883 195.778 200.047Z" fill="white"/>
</g>
<path d="M205.563 196.333L205.456 196.396L205.143 196.57L203.974 197.188C202.984 197.705 201.607 198.4 200.066 199.12C198.526 199.839 197.125 200.482 196.101 200.926L194.884 201.448L194.551 201.583L194.435 201.622L194.546 201.564L194.869 201.414L196.077 200.873C197.091 200.414 198.492 199.772 200.033 199.038C201.573 198.303 202.93 197.622 203.945 197.106L205.123 196.512L205.447 196.352C205.485 196.341 205.523 196.335 205.563 196.333Z" fill="#20332B"/>
<path d="M196.811 200.718C196.668 200.54 196.506 200.378 196.328 200.235C196.131 200.125 195.922 200.036 195.705 199.97C195.943 199.966 196.177 200.034 196.377 200.164C196.576 200.293 196.732 200.48 196.826 200.699L196.811 200.718Z" fill="#20332B"/>
<path d="M198.279 198.815C198.279 198.815 198.12 198.767 197.951 198.661C197.782 198.555 197.656 198.453 197.671 198.434C197.685 198.415 197.83 198.482 197.999 198.588C198.168 198.695 198.289 198.796 198.279 198.815Z" fill="#20332B"/>
<path d="M198.675 198.279C198.675 198.303 198.53 198.279 198.371 198.236C198.212 198.192 198.086 198.13 198.091 198.105C198.195 198.096 198.299 198.113 198.395 198.154C198.564 198.188 198.68 198.255 198.675 198.279Z" fill="#20332B"/>
<path d="M198.719 197.502C198.719 197.526 198.584 197.618 198.395 197.709C198.207 197.801 198.047 197.859 198.033 197.835C198.125 197.743 198.235 197.673 198.357 197.627C198.564 197.535 198.704 197.477 198.719 197.502Z" fill="#20332B"/>
<path d="M198.622 197.009C198.622 197.009 198.511 197.183 198.294 197.304C198.169 197.388 198.024 197.435 197.874 197.439C198.125 197.299 198.375 197.156 198.622 197.009Z" fill="#20332B"/>
<path d="M197.782 198.347C197.655 198.438 197.513 198.506 197.362 198.545C197.205 198.599 197.043 198.638 196.879 198.661C196.776 198.673 196.672 198.673 196.569 198.661C196.538 198.659 196.507 198.651 196.479 198.637C196.451 198.623 196.426 198.603 196.405 198.579C196.386 198.549 196.376 198.515 196.376 198.48C196.376 198.445 196.386 198.41 196.405 198.381C196.529 198.225 196.704 198.118 196.898 198.076C197.093 198.035 197.296 198.062 197.473 198.154C197.576 198.208 197.668 198.282 197.743 198.371C197.772 198.401 197.793 198.438 197.806 198.477C197.701 198.369 197.579 198.279 197.444 198.212C197.293 198.142 197.124 198.12 196.961 198.149C196.866 198.16 196.775 198.189 196.692 198.235C196.609 198.282 196.536 198.344 196.478 198.419C196.434 198.501 196.478 198.569 196.594 198.579C196.688 198.588 196.784 198.588 196.879 198.579C197.042 198.562 197.203 198.531 197.362 198.487C197.598 198.41 197.777 198.337 197.782 198.347Z" fill="#20332B"/>
<path d="M197.685 198.419C197.685 198.419 197.565 198.352 197.497 198.149C197.457 198.033 197.446 197.908 197.463 197.787C197.47 197.707 197.497 197.631 197.541 197.564C197.585 197.498 197.644 197.443 197.714 197.405C197.762 197.395 197.811 197.403 197.852 197.428C197.894 197.453 197.924 197.494 197.936 197.54C197.953 197.614 197.953 197.689 197.936 197.763C197.925 197.882 197.897 197.999 197.854 198.11C197.787 198.303 197.705 198.405 197.695 198.395C197.685 198.386 197.743 198.279 197.796 198.091C197.828 197.982 197.847 197.871 197.854 197.758C197.854 197.637 197.83 197.458 197.719 197.492C197.608 197.526 197.55 197.69 197.526 197.801C197.501 197.911 197.501 198.025 197.526 198.134C197.567 198.236 197.621 198.331 197.685 198.419Z" fill="#20332B"/>
<path d="M204.573 194.599C204.573 194.599 204.379 194.671 204.09 194.85C203.729 195.073 203.437 195.393 203.249 195.773C203.064 196.16 202.989 196.591 203.032 197.019C203.066 197.352 203.143 197.545 203.128 197.55C203.101 197.508 203.079 197.463 203.066 197.415C203.019 197.29 202.987 197.16 202.969 197.028C202.906 196.587 202.975 196.136 203.167 195.734C203.361 195.328 203.675 194.991 204.065 194.768C204.181 194.7 204.304 194.645 204.432 194.604C204.479 194.595 204.526 194.593 204.573 194.599Z" fill="#20332B"/>
<path d="M202.597 192.194C202.853 192.62 203.086 193.06 203.293 193.512C203.525 193.954 203.732 194.409 203.911 194.874C203.654 194.447 203.422 194.005 203.215 193.551C202.98 193.112 202.773 192.659 202.597 192.194Z" fill="#20332B"/>
<path d="M202.008 197.357C201.729 197.579 201.422 197.764 201.095 197.907C200.782 198.078 200.447 198.206 200.1 198.289C200.1 198.289 200.53 198.086 201.066 197.83C201.602 197.574 201.994 197.338 202.008 197.357Z" fill="#20332B"/>
<path d="M203.293 196.739C203.293 196.739 203.293 196.85 203.293 196.966C203.293 197.082 203.317 197.183 203.293 197.193C203.269 197.202 203.206 197.106 203.206 196.97C203.206 196.835 203.269 196.739 203.293 196.739Z" fill="#20332B"/>
<path d="M203.491 195.913C203.515 195.913 203.491 196.009 203.466 196.111C203.442 196.212 203.384 196.285 203.365 196.28C203.346 196.275 203.365 196.183 203.365 196.082C203.365 195.98 203.466 195.903 203.491 195.913Z" fill="#20332B"/>
<path d="M204.051 195.29C204.051 195.314 203.969 195.357 203.892 195.435C203.814 195.512 203.766 195.599 203.742 195.594C203.718 195.589 203.742 195.468 203.829 195.372C203.916 195.275 204.051 195.29 204.051 195.29Z" fill="#20332B"/>
<path d="M204.486 194.942C204.486 194.942 204.486 195.01 204.437 195.058C204.389 195.106 204.341 195.125 204.321 195.111C204.302 195.096 204.321 195.043 204.37 194.995C204.418 194.947 204.466 194.923 204.486 194.942Z" fill="#20332B"/>
<path d="M205.838 193.155L195.212 198.096L176.106 164.079C173.618 155.105 171.218 123.509 171.218 123.509L185.041 124.562C185.041 124.562 187.171 147.262 190.508 158.931L205.838 193.155Z" fill="#20332B"/>
<path d="M193.512 194.768C193.512 194.768 193.647 194.667 193.913 194.527C194.179 194.386 194.57 194.188 195.053 193.952C196.019 193.469 197.366 192.836 198.859 192.141C200.351 191.445 201.704 190.832 202.689 190.402C203.172 190.184 203.587 190.011 203.863 189.919C204.003 189.847 204.152 189.795 204.307 189.764C204.186 189.864 204.051 189.945 203.906 190.006C203.636 190.146 203.249 190.344 202.766 190.581C201.8 191.064 200.453 191.696 198.965 192.392C197.477 193.087 196.12 193.696 195.13 194.13C194.647 194.348 194.237 194.522 193.957 194.613C193.816 194.686 193.667 194.738 193.512 194.768Z" fill="#3F725C"/>
<path d="M191.319 110.792C191.58 110.792 194.406 119.162 191.687 124.711C191.411 125.267 189.272 128.324 189.272 128.324C181.747 137.201 174.125 154.405 172 158.94C167.653 168.218 151.541 198.738 151.541 198.738L141.205 192.822L156.318 153.966L170.034 118.901L191.319 110.792Z" fill="#20332B"/>
<path d="M172.686 146.692C172.686 146.692 171.957 150.222 171.58 150.02C170.503 149.435 163.099 146.677 163.099 146.677L165.098 144.46L172.686 146.692Z" fill="#3F725C"/>
<path d="M170.503 149.435C170.503 149.435 169.117 155.13 167.335 154.82C165.552 154.511 161.829 152.637 161.829 152.637L164.074 147.02L170.503 149.435Z" fill="#3F725C"/>
<path d="M171.58 150.02L163.316 146.716L163.712 147.928L170.257 150.324L171.58 150.02Z" fill="#20332B"/>
<path d="M185.925 132.792C185.89 132.868 185.844 132.94 185.789 133.004L185.364 133.579C184.997 134.062 184.476 134.815 183.872 135.747C182.66 137.612 181.133 140.278 179.573 143.292C178.013 146.305 176.676 149.087 175.734 151.087L174.599 153.468L174.285 154.11C174.252 154.188 174.209 154.261 174.159 154.328C174.175 154.246 174.201 154.166 174.236 154.091L174.512 153.429C174.753 152.855 175.115 152.029 175.569 151.015C176.487 148.986 177.782 146.185 179.351 143.176C180.659 140.588 182.11 138.076 183.698 135.651C184.326 134.728 184.867 134.004 185.263 133.521C185.447 133.299 185.601 133.12 185.746 132.975C185.798 132.907 185.858 132.845 185.925 132.792Z" fill="#3F725C"/>
<path d="M141.992 191.01C142.021 190.952 144.46 192.112 147.441 193.604C150.421 195.096 152.806 196.362 152.753 196.425C152.7 196.487 150.285 195.323 147.305 193.831C144.325 192.339 141.963 191.073 141.992 191.01Z" fill="#3F725C"/>
<path d="M154.275 90.7865C153.714 92.0515 153.079 93.2821 152.372 94.4716C151.738 95.7029 151.029 96.8934 150.247 98.036C150.808 96.7699 151.444 95.5378 152.15 94.3461C152.787 93.1184 153.496 91.9297 154.275 90.7865Z" fill="#20332B"/>
<path d="M173.802 76.0893C174.367 76.0893 175.038 80.1947 175.608 87.5698C176.255 95.9351 176.197 104.378 173.884 109.686C173.67 110.252 173.347 110.771 172.933 111.213C172.518 111.655 172.021 112.011 171.469 112.26C165.48 114.733 148.957 97.017 148.957 97.017L153.024 89.8833L164.659 99.2773C164.659 99.2773 165.818 89.7722 165.596 85.3916C165.417 82.0686 168.735 76.1279 173.802 76.0893Z" fill="#3F725C"/>
<path d="M178.95 76.1714C178.95 76.1714 189.054 77.6493 191.667 81.6194C194.28 85.5896 192.957 120.606 192.957 120.606L166.982 122.142C166.982 122.142 169.078 77.572 170.363 77.0649C173.589 75.7995 178.564 76.0458 178.95 76.1714Z" fill="#3F725C"/>
<path d="M137.366 66.9512C137.29 65.8887 137.488 64.8245 137.94 63.8601C138.141 63.4476 138.246 62.9954 138.249 62.5368V61.3631H123.108C122.492 61.3631 121.901 61.6079 121.465 62.0435C121.029 62.4792 120.785 63.0701 120.785 63.6863V78.765H119.761C119.288 78.7605 118.822 78.6482 118.399 78.4366C117.45 77.9796 116.401 77.7687 115.349 77.8233C114.297 77.878 113.276 78.1964 112.379 78.7492C111.483 79.3021 110.74 80.0716 110.218 80.987C109.697 81.9024 109.415 82.9341 109.397 83.9873C109.379 85.0405 109.626 86.0813 110.116 87.0138C110.606 87.9462 111.323 88.7405 112.2 89.3234C113.078 89.9063 114.087 90.2591 115.137 90.3494C116.186 90.4396 117.242 90.2644 118.206 89.8398C118.605 89.6582 119.037 89.5628 119.476 89.5597H120.804V104.262C120.803 104.567 120.863 104.87 120.98 105.152C121.096 105.435 121.267 105.691 121.483 105.908C121.699 106.124 121.955 106.295 122.237 106.412C122.519 106.529 122.822 106.59 123.127 106.59H164.031C164.533 106.59 165.015 106.39 165.37 106.035C165.725 105.68 165.924 105.199 165.924 104.696V63.2564C165.925 63.0076 165.876 62.7611 165.782 62.5311C165.687 62.3011 165.547 62.0921 165.371 61.9162C165.195 61.7403 164.986 61.6008 164.756 61.5059C164.526 61.411 164.28 61.3625 164.031 61.3631H149.252V63.0391C149.25 63.4268 149.326 63.8109 149.474 64.1692C149.82 65.0118 149.978 65.9195 149.938 66.8294C149.898 67.7394 149.661 68.6297 149.242 69.4386C148.824 70.2476 148.234 70.9558 147.515 71.5142C146.795 72.0726 145.963 72.4677 145.075 72.6722C144.188 72.8767 143.266 72.8856 142.375 72.6984C141.484 72.5112 140.644 72.1323 139.913 71.588C139.183 71.0437 138.58 70.3471 138.146 69.5464C137.712 68.7457 137.457 67.8602 137.399 66.9512H137.366Z" fill="#519075"/>
<path d="M168.745 83.619C168.76 83.7149 168.768 83.8117 168.769 83.9088C168.769 84.131 168.769 84.3918 168.769 84.7443C168.769 85.5026 168.769 86.5459 168.808 87.8161C168.808 90.4097 168.851 93.9935 168.769 97.9588C168.687 101.924 168.47 105.503 168.204 108.101C168.069 109.396 167.938 110.434 167.832 111.154C167.779 111.492 167.735 111.762 167.697 111.98C167.69 112.077 167.669 112.173 167.634 112.265C167.628 112.168 167.628 112.071 167.634 111.975C167.658 111.758 167.682 111.492 167.721 111.144C167.793 110.42 167.9 109.377 168.011 108.087C168.233 105.503 168.431 101.929 168.494 97.9733C168.557 94.0176 168.571 90.4387 168.605 87.8306C168.605 86.5604 168.639 85.5171 168.648 84.7588C168.648 84.4207 168.648 84.1406 168.672 83.9233C168.683 83.819 168.707 83.7167 168.745 83.619Z" fill="#20332B"/>
<path d="M184.196 59.663C183.78 62.3001 183.804 64.6136 185.094 66.333C185.374 66.6637 185.632 67.0122 185.867 67.3763C185.983 67.5594 186.061 67.7645 186.095 67.9788C186.129 68.1931 186.118 68.4122 186.065 68.6224C186.005 68.8088 185.896 68.9759 185.751 69.1065C185.605 69.2371 185.427 69.3265 185.235 69.3653C185.043 69.4042 184.844 69.3912 184.659 69.3277C184.474 69.2642 184.309 69.1524 184.181 69.0039C184.223 69.3022 184.175 69.6062 184.043 69.8772C183.912 70.1482 183.702 70.3738 183.442 70.5253C183.309 70.5866 183.164 70.6167 183.017 70.6135C182.871 70.6103 182.727 70.5738 182.597 70.5068C182.466 70.4398 182.353 70.344 182.265 70.2267C182.177 70.1094 182.117 69.9737 182.09 69.8298C182.09 69.8298 182.433 71.1677 180.897 70.96L181.979 61.7833L184.196 59.663Z" fill="#20332B"/>
<path d="M177.313 79.9483C176.714 79.9483 176.121 79.8222 175.574 79.5784C175.027 79.3346 174.537 78.9784 174.136 78.533C173.735 78.0876 173.433 77.5629 173.248 76.993C173.063 76.423 173 75.8206 173.063 75.2247C173.203 73.8531 173.328 72.7374 173.328 72.7374C173.328 72.7374 169.948 72.2109 169.904 68.83C169.861 65.4492 170.45 57.6876 170.45 57.6876C172.372 56.8627 174.479 56.5656 176.554 56.8271C178.629 57.0886 180.597 57.8992 182.254 59.1752L182.737 59.5568L181.563 75.9782C181.487 77.0541 181.006 78.0613 180.218 78.7976C179.429 79.5339 178.392 79.945 177.313 79.9483Z" fill="#FFBE9D"/>
<path d="M171.319 63.7925C171.389 63.7278 171.438 63.644 171.46 63.5517C171.482 63.4593 171.477 63.3624 171.444 63.2731C171.411 63.1839 171.353 63.1062 171.277 63.0499C171.2 62.9935 171.109 62.961 171.014 62.9564C170.919 62.9517 170.825 62.9752 170.743 63.0238C170.662 63.0724 170.596 63.144 170.555 63.2296C170.514 63.3153 170.499 63.4111 170.512 63.5052C170.525 63.5994 170.566 63.6875 170.628 63.7587C170.671 63.807 170.723 63.8462 170.781 63.8741C170.839 63.902 170.902 63.918 170.967 63.9212C171.031 63.9243 171.095 63.9146 171.156 63.8925C171.216 63.8704 171.272 63.8364 171.319 63.7925Z" fill="#20332B"/>
<path d="M170.382 62.7251C170.436 62.7831 170.769 62.5271 171.232 62.5271C171.696 62.5271 172.039 62.7638 172.087 62.7058C172.136 62.6478 172.063 62.5754 171.913 62.4595C171.716 62.3163 171.477 62.2417 171.232 62.247C170.988 62.2469 170.749 62.3247 170.551 62.4691C170.407 62.5947 170.358 62.701 170.382 62.7251Z" fill="#20332B"/>
<path d="M175.748 63.4351C175.693 63.4679 175.645 63.5114 175.606 63.5631C175.568 63.6148 175.54 63.6737 175.525 63.7362C175.51 63.7988 175.507 63.8637 175.517 63.9273C175.527 63.9909 175.55 64.0518 175.584 64.1065C175.617 64.1626 175.661 64.2115 175.713 64.2503C175.765 64.2891 175.824 64.317 175.887 64.3324C175.95 64.3477 176.016 64.3501 176.08 64.3395C176.144 64.3289 176.205 64.3055 176.26 64.2707C176.316 64.2375 176.364 64.1935 176.403 64.1412C176.441 64.089 176.469 64.0295 176.483 63.9664C176.498 63.9033 176.5 63.8379 176.489 63.774C176.478 63.7101 176.455 63.649 176.42 63.5945C176.387 63.5395 176.343 63.4916 176.291 63.4537C176.239 63.4158 176.18 63.3886 176.117 63.3737C176.055 63.3589 175.99 63.3567 175.927 63.3672C175.863 63.3778 175.803 63.4008 175.748 63.4351Z" fill="#20332B"/>
<path d="M175.439 63.1357C175.492 63.1936 175.825 62.9376 176.289 62.9376C176.753 62.9376 177.096 63.1743 177.144 63.1163C177.192 63.0584 177.115 62.9859 176.97 62.87C176.771 62.7262 176.53 62.6515 176.284 62.6575C176.039 62.6578 175.802 62.7393 175.608 62.8893C175.463 63.0052 175.415 63.1115 175.439 63.1357Z" fill="#20332B"/>
<path d="M173.575 66.9754C173.333 66.8833 173.079 66.8295 172.821 66.816C172.7 66.816 172.604 66.7774 172.594 66.7097C172.589 66.5879 172.619 66.4671 172.681 66.362L173.048 65.396C173.399 64.5966 173.666 63.763 173.845 62.9087C173.417 63.6766 173.068 64.4856 172.802 65.3236C172.681 65.652 172.565 65.9659 172.454 66.2895C172.373 66.4455 172.349 66.6249 172.387 66.7967C172.404 66.8429 172.431 66.8845 172.467 66.9181C172.503 66.9516 172.547 66.9762 172.594 66.9899C172.662 67.0074 172.732 67.0171 172.802 67.0188C173.06 67.0488 173.322 67.0341 173.575 66.9754Z" fill="#20332B"/>
<path d="M175.087 67.4922C175.57 67.2024 173.749 68.2022 172.802 68.1539C172.96 68.3982 173.195 68.5819 173.471 68.6749C173.746 68.7679 174.045 68.7647 174.319 68.6658C175.333 68.2939 175.087 67.4922 175.087 67.4922Z" fill="white"/>
<path d="M173.299 72.6891C174.86 72.7181 176.394 72.2808 177.704 71.4333C177.704 71.4333 176.661 73.8482 173.29 73.5633L173.299 72.6891Z" fill="#EB996E"/>
<path d="M182.737 62.8314C182.809 62.8072 185.258 62.6382 184.852 65.4878C184.447 68.3374 181.703 66.985 181.708 66.9029C181.713 66.8208 182.737 62.8314 182.737 62.8314Z" fill="#FFBE9D"/>
<path d="M182.722 66.0287C182.722 66.0287 182.766 66.0722 182.848 66.1205C182.902 66.1547 182.962 66.1779 183.025 66.1887C183.088 66.1995 183.153 66.1976 183.215 66.1833C183.416 66.0923 183.589 65.9495 183.716 65.7696C183.844 65.5896 183.921 65.379 183.94 65.1594C183.985 64.9169 183.973 64.6673 183.906 64.4301C183.891 64.3373 183.855 64.2494 183.8 64.1738C183.744 64.0981 183.671 64.0369 183.587 63.9954C183.532 63.9711 183.47 63.9675 183.412 63.9852C183.354 64.003 183.305 64.0409 183.273 64.092C183.225 64.1644 183.234 64.2224 183.215 64.2272C183.196 64.232 183.162 64.1692 183.215 64.0582C183.24 63.9879 183.29 63.9294 183.355 63.8939C183.398 63.8689 183.445 63.853 183.494 63.8472C183.543 63.8414 183.593 63.8458 183.64 63.8601C183.753 63.9048 183.853 63.9781 183.929 64.073C184.005 64.1678 184.056 64.2809 184.075 64.4011C184.163 64.6639 184.183 64.9447 184.133 65.2173C184.112 65.4734 184.015 65.7175 183.855 65.9187C183.695 66.1199 183.479 66.2691 183.234 66.3475C183.155 66.3584 183.073 66.3515 182.997 66.3273C182.92 66.303 182.849 66.2621 182.79 66.2074C182.718 66.0964 182.713 66.0336 182.722 66.0287Z" fill="#EB996E"/>
<path d="M169.542 57.364C169.591 57.0769 169.752 56.8209 169.989 56.6511C170.225 56.4812 170.519 56.4112 170.807 56.456C170.613 56.4393 170.425 56.3781 170.258 56.2771C170.091 56.176 169.95 56.0379 169.845 55.8734C169.74 55.7089 169.674 55.5225 169.653 55.3285C169.632 55.1346 169.656 54.9384 169.722 54.7551C169.789 54.5718 169.897 54.4064 170.039 54.2716C170.18 54.1369 170.35 54.0365 170.536 53.9782C170.722 53.9199 170.919 53.9052 171.112 53.9354C171.305 53.9656 171.488 54.0397 171.648 54.1521C171.267 53.7946 170.964 53.3621 170.759 52.8819C170.655 52.6364 170.631 52.3645 170.69 52.1047C170.749 51.8448 170.888 51.6099 171.087 51.4329C171.308 51.3058 171.557 51.2388 171.812 51.2388C172.066 51.2388 172.316 51.3058 172.536 51.4329C173.232 51.7855 173.758 52.4231 174.468 52.7225C175.178 53.022 176.014 52.9495 176.801 53.0316C177.676 53.103 178.506 53.4496 179.172 54.0217C179.504 54.3071 179.765 54.6664 179.933 55.0707C180.1 55.4751 180.171 55.9132 180.138 56.3497C181.206 56.2869 182.375 56.3497 183.201 57.0114C183.138 56.5811 183.191 56.142 183.354 55.7389C183.517 55.3358 183.784 54.9832 184.128 54.7172C184.567 54.4121 185.076 54.2244 185.608 54.172C186.14 54.1196 186.676 54.2042 187.166 54.4178C187.398 54.497 187.611 54.6238 187.792 54.7901C187.972 54.9565 188.116 55.1587 188.214 55.3838C188.431 56.0358 188.021 56.7361 187.504 57.1901C187.02 57.6005 186.447 57.8916 185.831 58.0401C185.214 58.1885 184.571 58.1902 183.954 58.045C184.15 58.549 184.232 59.0898 184.195 59.6292C184.142 60.5613 183.394 61.5273 183.065 62.4015L182.993 62.9763L182.433 65.367L180.935 65.2463L181.346 60.2233C181.346 60.2233 181.626 58.1126 179.791 58.1851C177.955 58.2575 175.352 60.1653 171.836 59.4263C171.259 59.3576 170.705 59.1613 170.213 58.8516C169.981 58.6837 169.797 58.458 169.68 58.1971C169.562 57.9362 169.514 57.649 169.542 57.364Z" fill="#20332B"/>
<path d="M189.233 59.5713C188.951 59.7877 188.619 59.9305 188.267 59.9866C187.413 60.1807 186.519 60.076 185.733 59.6901C184.947 59.3043 184.318 58.6605 183.949 57.8663C183.776 57.5526 183.685 57.2006 183.684 56.8424C183.727 56.8424 183.804 57.2336 184.109 57.8084C184.498 58.5346 185.106 59.1204 185.846 59.4834C186.585 59.8464 187.421 59.9684 188.233 59.8321C188.852 59.7065 189.214 59.523 189.233 59.5713Z" fill="#20332B"/>
<path d="M185.644 62.3532C185.606 62.3532 185.644 62.0538 185.558 61.6094C185.42 61.0289 185.183 60.4766 184.857 59.977C184.516 59.4667 184.21 58.9343 183.94 58.3831C183.814 58.1552 183.748 57.8995 183.746 57.6393C183.881 57.8518 183.999 58.0746 184.099 58.3058C184.316 58.7115 184.688 59.2332 185.065 59.8466C185.411 60.3689 185.639 60.9607 185.731 61.5805C185.788 61.8406 185.757 62.1121 185.644 62.3532Z" fill="#20332B"/>
<path d="M160.621 90.289C158.94 89.2664 157.316 88.1523 155.757 86.9516C153.888 85.3722 154.024 85.1984 154.241 85.0197C154.82 84.5029 157.622 87.6761 157.414 86.6328C157.206 85.5896 153.55 83.165 154.168 82.653C154.99 81.9817 157.868 85.3577 158.134 85.6234C158.399 85.889 158.786 85.5075 158.535 85.2805C158.172 84.952 154.463 81.4166 155.26 80.7501C155.704 80.3782 156.274 81.2572 156.274 81.2572C156.274 81.2572 159.51 84.8361 159.877 84.5077C160.244 84.1793 158.428 82.0107 157.752 81.3248C157.076 80.639 157.139 80.0546 157.675 80.0015C158.037 79.9676 160.128 82.0155 160.776 82.7062C161.423 83.3968 163.152 85.3336 163.055 83.6721C162.959 82.0107 163.49 80.6873 163.876 80.4313C164.263 80.1753 164.751 80.639 164.567 81.122C164.42 81.6666 164.348 82.2289 164.355 82.7931C164.341 83.2462 164.403 83.6984 164.538 84.131C164.654 84.5029 164.77 84.8313 164.881 85.1211L166.016 88.246L163.166 91.8539L160.621 90.289Z" fill="#FFBE9D"/>
<path d="M188.736 79.5475C189.334 79.6972 192.899 81.5422 192.957 89.6225C193 96.0462 192.508 110.304 188.127 112.424C186.142 113.39 183.128 113.39 180.51 111.676C173.13 106.908 160.061 91.5399 160.061 91.5399L165.91 85.3094C165.91 85.3094 181.095 100.765 181.742 100.195C182.708 99.3353 181.225 91.9553 182.056 84.6622C182.626 79.475 185.041 78.625 188.736 79.5475Z" fill="#3F725C"/>
<path d="M165.9 85.5316C165.871 85.5713 165.837 85.607 165.799 85.6379L165.485 85.947C165.209 86.2126 164.804 86.6087 164.292 87.14C162.834 88.6452 161.494 90.2599 160.283 91.9698V91.8587C164.408 96.0655 170.426 102.185 177.105 108.99C178.683 110.491 180.608 111.578 182.708 112.154C183.697 112.429 184.736 112.475 185.746 112.289C186.706 112.076 187.598 111.626 188.339 110.98C189.693 109.741 190.683 108.156 191.203 106.397C191.665 104.862 191.976 103.287 192.131 101.692C192.522 98.7943 192.73 96.3794 192.821 94.7518C192.87 93.9307 192.894 93.3028 192.913 92.8585V92.3755C192.907 92.3209 192.907 92.2658 192.913 92.2113C192.921 92.2674 192.921 92.3242 192.913 92.3803C192.913 92.5011 192.913 92.6653 192.913 92.8633C192.913 93.298 192.913 93.9355 192.87 94.7614C192.807 96.4084 192.628 98.7943 192.256 101.721C192.112 103.33 191.81 104.92 191.353 106.469C190.831 108.268 189.829 109.891 188.455 111.164C187.686 111.839 186.759 112.309 185.76 112.53C184.715 112.724 183.64 112.678 182.616 112.395C180.473 111.814 178.507 110.708 176.898 109.178C170.194 102.364 164.224 96.2007 160.128 91.9843L160.075 91.9311L160.119 91.8732C161.347 90.1679 162.71 88.5641 164.195 87.0772C164.721 86.5604 165.161 86.174 165.427 85.9132L165.755 85.6282L165.9 85.5316Z" fill="#20332B"/>
<path d="M165.905 85.3094C165.905 85.3094 165.939 85.3094 165.987 85.3771L166.214 85.6041L167.079 86.4783C167.827 87.2414 168.924 88.3329 170.3 89.6708C171.677 91.0087 173.338 92.6025 175.212 94.3509L178.168 97.0894C179.206 98.0264 180.278 99.0213 181.428 99.9583L181.23 100.055C181.264 99.485 181.298 98.8813 181.331 98.2727C181.525 95.0802 181.703 92.0374 181.867 89.2699C181.969 87.8886 181.993 86.57 182.143 85.3384C182.254 84.1868 182.572 83.0646 183.08 82.0252C183.501 81.1613 184.14 80.4222 184.934 79.8807C185.542 79.4831 186.239 79.2455 186.963 79.19C187.417 79.1523 187.874 79.2082 188.306 79.3543C188.457 79.3987 188.602 79.4637 188.736 79.5474C188.736 79.5474 188.586 79.4847 188.291 79.4026C187.861 79.2802 187.412 79.2408 186.968 79.2866C186.267 79.3591 185.596 79.603 185.012 79.9966C184.252 80.5399 183.64 81.2658 183.234 82.1073C182.75 83.1322 182.45 84.2339 182.346 85.3626C182.21 86.5797 182.196 87.8982 182.099 89.2796L181.583 98.2824C181.549 98.8909 181.51 99.4995 181.481 100.065V100.311L181.293 100.161C180.114 99.1952 179.061 98.2293 178.023 97.2633C176.985 96.2973 176.009 95.3893 175.072 94.5103C173.208 92.7474 171.556 91.1294 170.194 89.7915C168.832 88.4537 167.755 87.3187 167.025 86.5362C166.654 86.1498 166.383 85.8407 166.195 85.6282L165.987 85.3916C165.924 85.3384 165.9 85.3094 165.905 85.3094Z" fill="#20332B"/>
<path d="M162.64 94.1191C162.848 93.7488 163.096 93.4023 163.379 93.0855C163.862 92.4721 164.548 91.6365 165.335 90.7334C166.122 89.8302 166.852 89.0333 167.393 88.4682C167.669 88.1458 167.978 87.8528 168.315 87.594C168.084 87.9503 167.818 88.2835 167.523 88.5889L165.524 90.8976L163.514 93.2014C163.253 93.5342 162.96 93.8415 162.64 94.1191Z" fill="#20332B"/>
<path d="M182.747 103.682C182.448 103.092 182.202 102.476 182.013 101.842C181.74 101.239 181.52 100.614 181.356 99.9728C182.072 101.099 182.546 102.363 182.747 103.682Z" fill="#20332B"/>
<path d="M184.075 102.653C183.506 102.303 182.984 101.883 182.519 101.402C182.001 100.977 181.535 100.491 181.133 99.9535C182.225 100.725 183.213 101.632 184.075 102.653Z" fill="#20332B"/>
<path d="M39.4114 174.603L23.898 188.605L19.6477 183.167L33.2437 166.325L39.4114 174.603Z" fill="#FFBE9D"/>
<path d="M24.2555 189.132L24.7868 188.649L19.8894 182.635L17.6821 184.567L17.9767 184.944C19.2953 186.62 24.8061 193.372 26.0716 194.155C27.4819 195.024 24.2555 189.132 24.2555 189.132Z" fill="#519075"/>
<g opacity="0.5">
<path d="M19.5802 186.625C19.9937 186.11 20.2004 185.459 20.1598 184.799C20.1306 184.147 19.8543 183.531 19.387 183.075L17.769 184.524L19.5802 186.625Z" fill="white"/>
</g>
<path opacity="0.5" d="M25.748 192.087C25.748 192.087 26.7719 194.251 26.2937 194.285C25.8156 194.319 20.0149 187.707 17.6821 184.567L17.8222 184.461L24.5502 192.232C24.5502 192.232 25.434 191.764 25.748 192.087Z" fill="white"/>
<path d="M17.7449 184.369C17.7667 184.408 17.7926 184.443 17.8222 184.476L18.054 184.78L18.9378 185.871C19.6865 186.789 20.7442 188.04 21.9372 189.397C23.1301 190.754 24.241 191.962 25.0572 192.826L26.0232 193.841L26.2889 194.111C26.3193 194.145 26.3533 194.176 26.3903 194.203L26.3033 194.097L26.0474 193.817C25.7914 193.532 25.4726 193.189 25.0814 192.783C24.2796 191.909 23.1784 190.696 21.9855 189.339C20.7925 187.982 19.7299 186.736 18.962 185.828L18.0588 184.756L17.8125 184.466C17.7935 184.431 17.7708 184.399 17.7449 184.369Z" fill="#20332B"/>
<path d="M24.4583 192.31C24.6728 192.2 24.8999 192.118 25.1344 192.063C25.3735 192.036 25.615 192.036 25.8541 192.063C25.63 191.941 25.3681 191.906 25.1199 191.967C24.8647 191.996 24.6291 192.118 24.4583 192.31Z" fill="#20332B"/>
<path d="M23.8208 189.837C23.9462 189.867 24.0769 189.867 24.2024 189.837C24.41 189.808 24.5743 189.759 24.5694 189.731C24.3138 189.709 24.0567 189.75 23.8208 189.851V189.837Z" fill="#20332B"/>
<path d="M23.6565 189.151C23.6565 189.151 23.7917 189.214 23.9704 189.233C24.1491 189.252 24.294 189.233 24.2989 189.233C24.3037 189.233 24.1588 189.17 23.9801 189.151C23.8014 189.132 23.6565 189.122 23.6565 189.151Z" fill="#20332B"/>
<path d="M23.9414 188.373C23.9414 188.373 24.0235 188.538 24.1684 188.707C24.3133 188.876 24.4485 189.001 24.4679 188.982C24.4872 188.963 24.3858 188.818 24.236 188.649C24.0863 188.48 23.9607 188.354 23.9414 188.373Z" fill="#20332B"/>
<path d="M24.2361 187.929C24.2555 188.088 24.3249 188.237 24.4341 188.354C24.5935 188.562 24.7722 188.682 24.7867 188.663C24.8012 188.644 24.6563 188.499 24.5114 188.296C24.4295 188.167 24.3374 188.044 24.2361 187.929Z" fill="#20332B"/>
<path d="M24.497 189.59C24.5856 189.731 24.6984 189.856 24.8302 189.958C24.9637 190.079 25.1094 190.185 25.2649 190.276C25.3554 190.339 25.4547 190.388 25.5595 190.421C25.6217 190.445 25.6905 190.445 25.7527 190.421C25.7863 190.403 25.8139 190.376 25.8319 190.342C25.8499 190.309 25.8577 190.271 25.8542 190.233C25.8167 190.103 25.7511 189.982 25.6619 189.88C25.5727 189.779 25.4622 189.698 25.3382 189.643C25.2142 189.589 25.0797 189.562 24.9444 189.566C24.809 189.569 24.676 189.602 24.5549 189.663C24.5127 189.682 24.4749 189.71 24.4438 189.745C24.5962 189.677 24.7602 189.64 24.9268 189.634C25.0974 189.632 25.265 189.679 25.4098 189.769C25.4992 189.821 25.5769 189.891 25.6384 189.974C25.6999 190.057 25.7437 190.152 25.7672 190.252C25.7672 190.349 25.6899 190.387 25.5934 190.358C25.4981 190.323 25.406 190.279 25.3181 190.228C25.1646 190.141 25.0177 190.042 24.8785 189.933C24.6322 189.721 24.5115 189.576 24.497 189.59Z" fill="#20332B"/>
<path d="M24.5647 189.702C24.6822 189.679 24.7872 189.614 24.8593 189.518C24.9477 189.42 25.0107 189.303 25.0428 189.175C25.0735 189.095 25.082 189.007 25.0676 188.922C25.0531 188.837 25.0162 188.758 24.9607 188.692C24.9185 188.662 24.8666 188.65 24.8154 188.657C24.7643 188.664 24.7178 188.69 24.6854 188.731C24.6346 188.792 24.5968 188.862 24.5743 188.938C24.5356 189.061 24.5129 189.187 24.5067 189.315C24.4884 189.43 24.5 189.549 24.5405 189.658C24.5583 189.546 24.568 189.433 24.5695 189.32C24.5881 189.2 24.6172 189.082 24.6564 188.967C24.6903 188.847 24.8013 188.687 24.9028 188.765C24.9388 188.821 24.9626 188.885 24.9726 188.952C24.9825 189.018 24.9785 189.086 24.9607 189.151C24.9346 189.267 24.8835 189.376 24.811 189.47C24.7355 189.554 24.6531 189.631 24.5647 189.702Z" fill="#20332B"/>
<path d="M19.4304 183.09C19.4304 183.09 19.5946 183.239 19.7927 183.529C20.054 183.905 20.2061 184.347 20.2322 184.804C20.2491 185.26 20.1423 185.713 19.9231 186.113C19.7492 186.417 19.5898 186.596 19.6043 186.596C19.6188 186.596 19.6526 186.567 19.7202 186.495C19.8179 186.392 19.9038 186.278 19.9762 186.156C20.2254 185.753 20.3466 185.283 20.3239 184.809C20.2969 184.334 20.1288 183.878 19.841 183.5C19.7565 183.386 19.6592 183.283 19.5512 183.191C19.4835 183.114 19.4352 183.085 19.4304 183.09Z" fill="#20332B"/>
<path d="M20.7781 186.862C20.9615 187.194 21.1872 187.5 21.4494 187.774C21.6893 188.07 21.9669 188.333 22.2753 188.557C22.2753 188.557 21.9372 188.18 21.5267 187.712C21.1162 187.243 20.8264 186.847 20.7781 186.862Z" fill="#20332B"/>
<path d="M19.7878 185.722C19.7588 185.722 19.7346 185.823 19.6815 185.934C19.6284 186.045 19.5704 186.142 19.5897 186.161C19.6091 186.181 19.7057 186.108 19.7684 185.973C19.8312 185.838 19.8119 185.722 19.7878 185.722Z" fill="#20332B"/>
<path d="M19.9426 184.823C19.9184 184.823 19.8894 184.91 19.8798 185.026C19.8701 185.142 19.8798 185.234 19.9136 185.234C19.9474 185.234 19.9667 185.147 19.9764 185.031C19.986 184.915 19.9667 184.823 19.9426 184.823Z" fill="#20332B"/>
<path d="M19.6477 183.998C19.6477 183.998 19.7008 184.094 19.7443 184.205C19.7878 184.316 19.7974 184.418 19.8264 184.423C19.8554 184.427 19.8892 184.307 19.8264 184.171C19.7636 184.036 19.6574 183.973 19.6477 183.998Z" fill="#20332B"/>
<path d="M19.3774 183.461C19.3774 183.461 19.3774 183.529 19.3774 183.592C19.3774 183.655 19.4402 183.703 19.4644 183.693C19.4885 183.684 19.4644 183.626 19.4644 183.558C19.4644 183.49 19.4016 183.452 19.3774 183.461Z" fill="#20332B"/>
<path d="M67.0043 174.459L68.8734 195.608H60.88L57.3542 174.459H67.0043Z" fill="#FFBE9D"/>
<path d="M68.6417 195.806V195.096L60.8801 195.063L60.9719 197.994H61.4549C63.5897 198.033 72.3027 198.052 73.7082 197.569C75.2247 197.048 68.6417 195.806 68.6417 195.806Z" fill="#519075"/>
<g opacity="0.5">
<path d="M63.7152 197.83C63.5789 197.183 63.2071 196.61 62.6719 196.222C62.1463 195.84 61.497 195.667 60.8511 195.739L60.9284 197.898L63.7152 197.83Z" fill="white"/>
</g>
<path opacity="0.5" d="M71.8535 196.526C71.8535 196.526 74.1718 197.106 73.9014 197.492C73.6309 197.878 64.8213 198.192 60.9236 197.975V197.801L71.2015 197.526C71.2015 197.526 71.4043 196.565 71.8535 196.526Z" fill="white"/>
<path d="M60.8079 197.82H60.9431H61.3247H62.7253C63.9134 197.82 65.5508 197.82 67.3571 197.738C69.1635 197.656 70.8008 197.584 71.9841 197.502L73.3848 197.395L73.7663 197.357H73.3848L71.9793 197.434C70.796 197.502 69.1635 197.584 67.3571 197.647C65.5508 197.709 63.9134 197.738 62.7253 197.753H61.3247H60.9431L60.8079 197.82Z" fill="#20332B"/>
<path d="M71.2062 197.666C71.2593 197.431 71.3387 197.202 71.4429 196.985C71.5821 196.783 71.7442 196.599 71.9259 196.434C71.6872 196.528 71.4936 196.709 71.3849 196.941C71.2381 197.153 71.1745 197.411 71.2062 197.666Z" fill="#20332B"/>
<path d="M68.8879 196.589C68.9121 196.589 69.0183 196.468 69.1246 196.285C69.2309 196.101 69.2985 195.947 69.2743 195.932C69.1759 196.017 69.0968 196.123 69.0425 196.241C68.9665 196.345 68.9137 196.463 68.8879 196.589Z" fill="#20332B"/>
<path d="M68.2551 196.285C68.2551 196.285 68.3904 196.217 68.5208 196.091C68.6512 195.966 68.7381 195.85 68.7188 195.835C68.6995 195.821 68.5836 195.898 68.4532 196.024C68.3227 196.149 68.2358 196.256 68.2551 196.285Z" fill="#20332B"/>
<path d="M67.8352 195.57C67.9644 195.612 68.1016 195.624 68.2361 195.604C68.3736 195.615 68.5119 195.597 68.6418 195.55C68.5114 195.506 68.3725 195.493 68.2361 195.512C68.0139 195.517 67.8352 195.541 67.8352 195.57Z" fill="#20332B"/>
<path d="M67.6758 195.058C67.8115 195.143 67.9701 195.183 68.1298 195.174C68.2949 195.201 68.4643 195.174 68.6128 195.096C68.4619 195.08 68.3097 195.08 68.1588 195.096C67.9992 195.07 67.8376 195.057 67.6758 195.058Z" fill="#20332B"/>
<path d="M69.1248 195.908C69.2845 195.936 69.448 195.936 69.6077 195.908C69.7869 195.879 69.9631 195.833 70.1342 195.773C70.2371 195.739 70.336 195.693 70.4288 195.637C70.4873 195.601 70.5303 195.544 70.5496 195.478C70.5554 195.441 70.5507 195.404 70.5362 195.37C70.5217 195.335 70.4979 195.306 70.4674 195.285C70.2753 195.197 70.0584 195.179 69.8545 195.235C69.6507 195.291 69.4728 195.416 69.3518 195.589C69.2776 195.689 69.2265 195.805 69.202 195.927C69.1906 195.97 69.1906 196.015 69.202 196.058C69.2509 195.904 69.3225 195.76 69.4145 195.628C69.5216 195.495 69.6638 195.394 69.8251 195.338C69.9191 195.298 70.0201 195.278 70.1221 195.278C70.2241 195.278 70.3251 195.298 70.4191 195.338C70.5013 195.396 70.4723 195.488 70.3853 195.546C70.299 195.595 70.2085 195.637 70.1149 195.671C69.9503 195.735 69.7807 195.785 69.6077 195.821C69.3179 195.884 69.1248 195.893 69.1248 195.908Z" fill="#20332B"/>
<path d="M69.26 195.927C69.3138 195.821 69.3292 195.7 69.3035 195.584C69.2845 195.454 69.233 195.331 69.1538 195.227C69.1112 195.153 69.0499 195.092 68.9762 195.05C68.9024 195.007 68.8187 194.985 68.7336 194.985C68.6839 194.999 68.6412 195.031 68.6143 195.075C68.5874 195.119 68.5782 195.172 68.5887 195.222C68.6008 195.301 68.6324 195.376 68.6804 195.439C68.7488 195.547 68.8317 195.644 68.9268 195.729C69.0051 195.817 69.1049 195.884 69.2166 195.922C69.2166 195.922 69.1151 195.835 68.9702 195.686C68.8901 195.595 68.8174 195.498 68.7529 195.396C68.6804 195.29 68.6273 195.106 68.7529 195.077C68.8785 195.048 69.0089 195.183 69.0861 195.275C69.1593 195.369 69.2105 195.478 69.2359 195.594C69.2529 195.704 69.261 195.816 69.26 195.927Z" fill="#20332B"/>
<path d="M60.9141 195.705C60.9141 195.705 61.1362 195.676 61.484 195.705C61.9412 195.745 62.3781 195.912 62.7446 196.188C63.1096 196.462 63.392 196.831 63.5608 197.255C63.6912 197.584 63.7105 197.806 63.7299 197.801C63.7373 197.75 63.7373 197.698 63.7299 197.647C63.709 197.507 63.675 197.37 63.6284 197.236C63.4749 196.787 63.1886 196.394 62.8074 196.111C62.424 195.832 61.9671 195.673 61.4936 195.652C61.3522 195.64 61.21 195.64 61.0686 195.652C61.0145 195.661 60.9622 195.679 60.9141 195.705Z" fill="#20332B"/>
<path d="M64.6619 197.053C65.0341 197.124 65.4142 197.145 65.7921 197.115C66.1714 197.118 66.5495 197.073 66.9174 196.98C66.9174 196.951 66.4103 197.004 65.7872 197.024C65.1642 197.043 64.6619 197.028 64.6619 197.053Z" fill="#20332B"/>
<path d="M63.1501 197.096C63.1501 197.096 63.1936 197.202 63.2516 197.313C63.3095 197.424 63.3385 197.531 63.3627 197.531C63.3868 197.531 63.4013 197.405 63.3337 197.275C63.2661 197.144 63.1646 197.077 63.1501 197.096Z" fill="#20332B"/>
<path d="M62.5559 196.41C62.5559 196.41 62.5897 196.507 62.6718 196.584C62.7539 196.661 62.836 196.71 62.8554 196.69C62.8747 196.671 62.8216 196.594 62.7346 196.516C62.6477 196.439 62.5704 196.391 62.5559 196.41Z" fill="#20332B"/>
<path d="M61.7303 196.111C61.7303 196.14 61.8366 196.135 61.9525 196.169C62.0684 196.203 62.1505 196.265 62.1698 196.246C62.1892 196.227 62.1215 196.12 61.9766 196.082C61.8317 196.043 61.7207 196.091 61.7303 196.111Z" fill="#20332B"/>
<path d="M61.1409 195.98C61.1409 196.004 61.1795 196.043 61.2423 196.067C61.3051 196.091 61.3679 196.067 61.3775 196.067C61.3872 196.067 61.3389 196.004 61.2761 195.98C61.2133 195.956 61.1505 195.956 61.1409 195.98Z" fill="#20332B"/>
<path d="M52.9544 112.386C52.9544 112.386 59.209 153.922 58.301 155.946C57.393 157.97 37.1318 178.694 37.1318 178.694L29.52 165.673C29.52 165.673 42.9276 150.821 42.7345 150.053C42.5413 149.285 33.0748 109.043 33.0748 109.043L52.9544 112.386Z" fill="#20332B"/>
<path d="M55.181 127.725C55.1182 127.281 50.071 115.935 50.071 115.935L52.5198 112.477L52.9545 112.386L55.181 127.725Z" fill="#20332B"/>
<path d="M29.5201 108.473L29.1386 110.014C28.0336 114.561 28.7257 119.358 31.0705 123.407L48.0136 152.787C49.2174 154.869 50.0938 157.123 50.612 159.472L54.8381 178.482H68.7481C68.7481 178.482 67.0287 165.441 65.4976 155.931C64.3384 148.749 54.7271 126.469 50.0711 115.921L52.969 112.371L47.9605 111.535L29.5201 108.473Z" fill="#20332B"/>
<path d="M50.438 115.853C50.6321 116.489 50.8693 117.11 51.148 117.713C51.631 118.848 52.2492 120.418 52.9254 122.161C53.6015 123.905 54.1956 125.499 54.6206 126.648C54.8247 127.28 55.07 127.898 55.3548 128.498C55.3372 128.318 55.2966 128.141 55.234 127.971C55.1423 127.643 54.9974 127.165 54.809 126.58C54.4274 125.412 53.843 123.813 53.1862 122.06C52.5293 120.306 51.8386 118.751 51.3267 117.636C51.0707 117.075 50.8437 116.626 50.7036 116.322C50.6363 116.155 50.547 115.997 50.438 115.853Z" fill="#3F725C"/>
<path d="M51.9594 165.243C51.9702 165.134 51.9702 165.024 51.9594 164.915C51.9305 164.668 51.8966 164.359 51.8532 163.973C51.8051 163.475 51.731 162.98 51.631 162.49C51.5199 161.92 51.4137 161.259 51.2253 160.558C51.1384 160.201 51.0466 159.824 50.95 159.438C50.8534 159.051 50.7182 158.651 50.5926 158.235C50.3607 157.4 50.0323 156.535 49.7136 155.617C48.9562 153.641 48.0937 151.706 47.1296 149.822C45.344 146.432 43.367 143.148 41.2082 139.983C40.392 138.766 39.7158 137.786 39.2425 137.114L38.6967 136.366C38.6354 136.274 38.5659 136.189 38.489 136.11C38.5307 136.212 38.5842 136.309 38.6484 136.399L39.1555 137.196C39.6385 137.916 40.2664 138.901 41.0488 140.094C42.6378 142.558 44.8306 145.977 46.8881 149.947C47.8383 151.816 48.6943 153.731 49.4527 155.685C49.7763 156.593 50.1144 157.453 50.3559 158.279C50.4815 158.689 50.6119 159.085 50.723 159.472C50.8341 159.858 50.921 160.225 51.0128 160.582C51.2156 161.288 51.3315 161.94 51.4571 162.514C51.5827 163.089 51.6696 163.577 51.7276 163.963C51.7856 164.35 51.8435 164.654 51.887 164.896C51.8978 165.014 51.9221 165.13 51.9594 165.243Z" fill="#3F725C"/>
<path d="M31.8044 122.021C31.8044 122.021 31.7658 121.978 31.6982 121.876L31.4036 121.393C31.6357 121.028 31.9395 120.714 32.2964 120.47C32.6534 120.226 33.0562 120.057 33.4804 119.973C34.1147 119.83 34.7706 119.811 35.4123 119.915C36.1659 120.047 36.9062 120.246 37.6244 120.509C38.4541 120.766 39.2617 121.089 40.0393 121.475C40.9269 121.917 41.6249 122.665 42.0051 123.581C42.1948 124.081 42.2268 124.627 42.0968 125.146C41.9383 125.649 41.7296 126.134 41.4738 126.595C41.2126 127.044 41.0712 127.553 41.0632 128.073C41.1054 128.597 41.3454 129.086 41.7346 129.44C42.6619 130.362 44.0336 130.531 45.1686 131.106C46.2763 131.667 47.1789 132.562 47.7477 133.666C48.2817 134.647 48.5326 135.757 48.4722 136.873C48.4151 137.845 48.1018 138.785 47.5642 139.597C46.7964 140.776 45.65 141.658 44.3137 142.099C43.9538 142.212 43.5832 142.288 43.2077 142.326C43.0775 142.335 42.9467 142.335 42.8165 142.326C43.3081 142.254 43.7928 142.141 44.2654 141.988C45.5571 141.524 46.658 140.644 47.3952 139.486C47.9045 138.696 48.1976 137.787 48.2452 136.849C48.2906 135.772 48.0418 134.703 47.5256 133.758C46.9716 132.702 46.1021 131.846 45.0382 131.309C44.4924 131.038 43.879 130.855 43.2656 130.623C42.6229 130.411 42.0332 130.064 41.5366 129.604C41.1024 129.205 40.8364 128.656 40.7928 128.068C40.8014 127.506 40.9527 126.956 41.2323 126.469C41.483 126.021 41.6884 125.548 41.8457 125.059C41.965 124.587 41.9346 124.089 41.7587 123.634C41.4055 122.768 40.7499 122.059 39.9137 121.64C39.1494 121.246 38.3548 120.915 37.5375 120.649C36.8352 120.379 36.1092 120.175 35.3689 120.041C34.7502 119.927 34.1152 119.935 33.4997 120.065C33.0879 120.141 32.695 120.297 32.3436 120.525C31.9922 120.753 31.6892 121.048 31.4519 121.393L31.7175 121.876C31.7518 121.921 31.781 121.97 31.8044 122.021Z" fill="#FAFAFA"/>
<path d="M66.9223 165.296C66.5809 164.997 66.1947 164.752 65.7776 164.572C65.2801 164.377 64.7613 164.241 64.2321 164.166C63.6187 164.065 62.9039 164.002 62.1214 163.876C61.2544 163.752 60.4177 163.469 59.6534 163.041C58.1904 162.223 57.0747 160.9 56.514 159.321C55.9533 157.741 55.9859 156.011 56.6058 154.453C57.0646 153.318 57.7553 152.333 57.9485 151.237C58.0708 150.164 57.9145 149.078 57.4945 148.083C57.1272 147.16 56.8143 146.217 56.5575 145.257C56.3492 144.402 56.3492 143.509 56.5575 142.654C56.8602 141.416 57.5589 140.31 58.5474 139.505C58.9007 139.206 59.3025 138.969 59.7355 138.805C59.3412 139.033 58.965 139.292 58.6101 139.578C57.6717 140.392 57.0143 141.483 56.7313 142.693C56.5311 143.521 56.5311 144.385 56.7313 145.214C57 146.162 57.3225 147.094 57.6973 148.006C58.1388 149.035 58.3052 150.162 58.1803 151.275C57.9774 152.449 57.2675 153.449 56.8328 154.55C56.2339 156.052 56.1973 157.719 56.7297 159.245C57.2622 160.771 58.3278 162.054 59.7307 162.857C60.4772 163.284 61.2957 163.571 62.1456 163.703C62.9184 163.838 63.6332 163.91 64.2514 164.026C64.7895 164.121 65.3136 164.284 65.8114 164.509C66.1249 164.65 66.4161 164.835 66.676 165.06C66.845 165.2 66.932 165.287 66.9223 165.296Z" fill="#FAFAFA"/>
<path d="M60.431 179.153C60.3827 179.153 60.3682 178.525 60.1171 177.555C59.9696 176.987 59.7674 176.436 59.5133 175.908C59.1957 175.264 58.8121 174.656 58.3687 174.092C57.9144 173.535 57.4029 173.029 56.8424 172.58C56.382 172.211 55.887 171.888 55.3645 171.614C54.471 171.16 53.8576 171.01 53.8721 170.962C54.0207 170.964 54.1678 170.991 54.3068 171.044C54.4714 171.081 54.6329 171.131 54.7898 171.194C55.0077 171.266 55.2207 171.354 55.4273 171.454C55.9741 171.706 56.4923 172.015 56.9728 172.377C58.1524 173.27 59.0918 174.441 59.7065 175.787C59.957 176.333 60.1481 176.905 60.2764 177.492C60.3302 177.716 60.369 177.943 60.3924 178.173C60.42 178.344 60.4329 178.516 60.431 178.69C60.458 178.843 60.458 179 60.431 179.153Z" fill="#FAFAFA"/>
<path d="M53.2924 124.518C53.2924 124.518 53.2296 124.518 53.104 124.557C52.9199 124.583 52.7345 124.599 52.5486 124.605C51.8656 124.628 51.1828 124.555 50.5201 124.388C49.5309 124.149 48.5943 123.73 47.7574 123.151C46.7145 122.454 45.8569 121.514 45.2586 120.412C44.6603 119.31 44.3394 118.078 44.3234 116.824C44.3006 115.806 44.4643 114.793 44.8064 113.834C45.0302 113.188 45.3423 112.575 45.7337 112.014C45.8368 111.862 45.9498 111.716 46.0718 111.579C46.1539 111.482 46.2022 111.434 46.207 111.439C45.6927 112.2 45.2787 113.025 44.9754 113.892C44.6695 114.837 44.5321 115.827 44.5697 116.819C44.5955 118.032 44.9084 119.22 45.4827 120.288C46.0569 121.356 46.8762 122.273 47.8733 122.963C48.6833 123.534 49.5873 123.959 50.5442 124.219C51.4431 124.439 52.3671 124.54 53.2924 124.518Z" fill="#FAFAFA"/>
<path d="M40.9088 151.618C41.0023 151.651 41.0928 151.691 41.1793 151.739C41.358 151.821 41.6091 151.961 41.9279 152.15C42.8303 152.697 43.6297 153.398 44.2897 154.222C44.7456 154.799 45.0956 155.454 45.3233 156.154C45.5761 156.964 45.6324 157.823 45.4875 158.66C45.3428 159.598 44.895 160.464 44.2124 161.123C43.4976 161.819 42.4495 162.051 41.841 162.814C41.2324 163.577 41.0972 164.577 41.0054 165.509C40.9759 166.435 40.8133 167.353 40.5224 168.233C40.1949 169.028 39.5983 169.683 38.8368 170.083C38.1895 170.436 37.4755 170.65 36.7406 170.711C35.6877 170.769 34.6322 170.664 33.6109 170.402C33.2487 170.315 32.9734 170.242 32.785 170.189C32.6881 170.17 32.594 170.14 32.5049 170.097C32.6043 170.102 32.703 170.117 32.7995 170.141L33.6302 170.305C34.6443 170.529 35.6854 170.605 36.7213 170.532C37.4273 170.464 38.1114 170.25 38.7305 169.904C39.4446 169.518 40.0027 168.897 40.3099 168.146C40.5816 167.284 40.7328 166.388 40.7591 165.485C40.7946 164.997 40.8689 164.512 40.9812 164.036C41.0947 163.53 41.3227 163.058 41.6478 162.654C42.3433 161.819 43.3962 161.592 44.0627 160.945C44.7082 160.324 45.1338 159.51 45.275 158.626C45.4183 157.822 45.372 156.995 45.1397 156.211C44.9271 155.535 44.6004 154.899 44.1738 154.333C43.536 153.514 42.7674 152.805 41.8989 152.237C41.5946 152.034 41.3483 151.884 41.1793 151.787C41.0825 151.742 40.9916 151.686 40.9088 151.618Z" fill="#FAFAFA"/>
<path d="M42.3914 51.6793C39.7109 51.0128 36.8275 52.6888 35.4944 55.1037C34.1614 57.5186 34.1469 60.4793 34.7748 63.1647C35.0404 64.29 35.4123 65.454 35.1515 66.5842C34.8714 67.7965 33.9054 68.7383 33.4417 69.8975C32.5579 72.1337 33.6832 74.6114 34.7844 76.7462C35.2674 77.7121 35.9291 78.7989 37.0013 79.0114C38.204 79.248 39.2617 78.2869 40.276 77.5962C42.0663 76.3881 44.2453 75.8967 46.3809 76.2197C48.7958 76.5916 50.9789 77.9778 53.4034 78.0213C54.5016 78.0291 55.5842 77.7613 56.5521 77.2424C57.5199 76.7234 58.3421 75.9699 58.9433 75.0509C59.6629 73.9256 59.9092 72.2303 58.8708 71.3996C58.185 70.8538 57.1369 70.8731 56.5332 70.2356C55.799 69.458 56.1178 68.207 56.4945 67.2121C56.8713 66.2171 57.248 65 56.5767 64.1693C55.828 63.2323 54.2052 63.411 53.4904 62.4499C52.7756 61.4887 53.529 60.035 53.4904 58.7599C53.4429 58.1984 53.2693 57.6548 52.9825 57.1697C52.6956 56.6847 52.3029 56.2707 51.8338 55.9586C50.9257 55.2969 50.8002 55.0844 49.5492 52.8095" fill="#20332B"/>
<path d="M38.6532 73.7662L48.3129 74.5921C48.3129 74.5921 55.35 73.5633 58.045 91.4095L68.7383 90.97L69.2213 98.0795L54.5144 98.804L52.7805 97.7656L52.9544 112.386L28.6265 110.594C29.1771 107.276 31.7707 102.909 32.6401 100.108C31.7562 97.896 26.8684 88.8787 26.627 84.2469C25.9701 71.5637 38.6532 73.7662 38.6532 73.7662Z" fill="#519075"/>
<path opacity="0.3" d="M53.8672 86.8502C53.8672 86.8502 55.5769 88.7821 55.6059 90.4098C55.6494 93.0179 54.9925 94.3558 55.8088 97.2054L53.4808 97.7656C53.4808 97.7656 53.1234 97.0701 53.4276 95.5825C53.7319 94.0949 54.3212 92.2838 54.582 90.6658C54.8135 89.3493 54.5595 87.9936 53.8672 86.8502Z" fill="black"/>
<path d="M53.4808 97.7656C53.4095 97.5822 53.3608 97.3908 53.3359 97.1957C53.2674 96.6634 53.2674 96.1245 53.3359 95.5922C53.4392 94.8101 53.6006 94.0368 53.8189 93.2787C54.0934 92.3634 54.3064 91.4308 54.4564 90.487C54.5997 89.553 54.4982 88.5978 54.1618 87.7147C53.8533 87.0078 53.4325 86.3554 52.9157 85.7828C52.0367 84.783 51.4137 84.2276 51.4668 84.1938C51.6315 84.2987 51.7853 84.4201 51.9256 84.556C52.328 84.9042 52.7101 85.2751 53.0703 85.6669C53.623 86.2443 54.0723 86.9125 54.3985 87.6423C54.7646 88.5616 54.8764 89.5627 54.7221 90.5402C54.575 91.4961 54.3538 92.4392 54.0604 93.3608C53.8318 94.1071 53.6495 94.8668 53.5146 95.6356C53.4335 96.1547 53.406 96.6807 53.4325 97.2053C53.468 97.3899 53.4842 97.5777 53.4808 97.7656Z" fill="#20332B"/>
<g opacity="0.2">
<path d="M53.7996 97.5821L46.5934 97.7463C46.0223 97.8003 45.4462 97.7328 44.903 97.5483C44.1447 97.2295 43.6569 96.4905 43.2319 95.7854C41.9665 93.6989 40.8073 91.5545 39.7544 89.3521C39.7544 89.3521 41.6573 95.4038 42.8503 98.0458C42.9662 98.3791 43.2058 98.6553 43.5195 98.8171C43.8332 98.9789 44.1971 99.014 44.5359 98.9151C47.672 98.9209 50.7923 98.4718 53.7996 97.5821Z" fill="black"/>
</g>
<path d="M100.91 81.6436C101.972 81.568 103.036 81.7659 104.001 82.2184C104.412 82.4189 104.862 82.5245 105.319 82.5275H106.498V67.386C106.498 67.0805 106.438 66.778 106.321 66.4958C106.203 66.2136 106.032 65.9573 105.816 65.7415C105.599 65.5257 105.343 65.3547 105.06 65.2383C104.778 65.1218 104.475 65.0622 104.17 65.0628H89.0911V64.0389C89.096 63.5643 89.2083 63.097 89.4195 62.672C89.9937 61.4947 90.1797 60.1655 89.9508 58.8758C89.6828 57.3254 88.8425 55.9321 87.5962 54.9717C86.3498 54.0114 84.7884 53.554 83.2209 53.69C81.6534 53.826 80.1941 54.5456 79.1319 55.7063C78.0696 56.8671 77.4819 58.3843 77.485 59.9577C77.4849 60.8279 77.6676 61.6885 78.0211 62.4837C78.1999 62.8819 78.2952 63.3126 78.3012 63.7491V65.0628H63.5944C62.9783 65.0628 62.3873 65.3076 61.9517 65.7432C61.516 66.1789 61.2712 66.7698 61.2712 67.386V108.29C61.2712 108.538 61.3202 108.785 61.4154 109.014C61.5105 109.244 61.65 109.453 61.8258 109.629C62.0016 109.804 62.2103 109.944 62.44 110.039C62.6697 110.134 62.9159 110.183 63.1645 110.183H104.605C105.106 110.182 105.587 109.982 105.942 109.627C106.297 109.272 106.497 108.792 106.498 108.29V93.5057H104.822C104.434 93.5062 104.051 93.5816 103.692 93.7279C102.95 94.0308 102.156 94.1866 101.354 94.1867C99.6888 94.2456 98.0684 93.6406 96.8492 92.5048C95.63 91.369 94.912 89.7953 94.8531 88.1301C94.7942 86.4649 95.3992 84.8444 96.535 83.6253C97.6708 82.4061 99.2445 81.6881 100.91 81.6291V81.6436Z" fill="#519075"/>
<path opacity="0.2" d="M100.91 81.6436C101.972 81.568 103.036 81.7659 104.001 82.2184C104.412 82.4189 104.862 82.5245 105.319 82.5275H106.498V67.386C106.498 67.0805 106.438 66.778 106.321 66.4958C106.203 66.2136 106.032 65.9573 105.816 65.7415C105.599 65.5257 105.343 65.3547 105.06 65.2383C104.778 65.1218 104.475 65.0622 104.17 65.0628H89.0911V64.0389C89.096 63.5643 89.2083 63.097 89.4195 62.672C89.9937 61.4947 90.1797 60.1655 89.9508 58.8758C89.6828 57.3254 88.8425 55.9321 87.5962 54.9717C86.3498 54.0114 84.7884 53.554 83.2209 53.69C81.6534 53.826 80.1941 54.5456 79.1319 55.7063C78.0696 56.8671 77.4819 58.3843 77.485 59.9577C77.4849 60.8279 77.6676 61.6885 78.0211 62.4837C78.1999 62.8819 78.2952 63.3126 78.3012 63.7491V65.0628H63.5944C62.9783 65.0628 62.3873 65.3076 61.9517 65.7432C61.516 66.1789 61.2712 66.7698 61.2712 67.386V108.29C61.2712 108.538 61.3202 108.785 61.4154 109.014C61.5105 109.244 61.65 109.453 61.8258 109.629C62.0016 109.804 62.2103 109.944 62.44 110.039C62.6697 110.134 62.9159 110.183 63.1645 110.183H104.605C105.106 110.182 105.587 109.982 105.942 109.627C106.297 109.272 106.497 108.792 106.498 108.29V93.5057H104.822C104.434 93.5062 104.051 93.5816 103.692 93.7279C102.95 94.0308 102.156 94.1866 101.354 94.1867C99.6888 94.2456 98.0684 93.6406 96.8492 92.5048C95.63 91.369 94.912 89.7953 94.8531 88.1301C94.7942 86.4649 95.3992 84.8444 96.535 83.6253C97.6708 82.4061 99.2445 81.6881 100.91 81.6291V81.6436Z" fill="white"/>
<path d="M38.5228 74.1042L37.7742 57.0549L44.5359 51.9256L50.6892 54.9346C50.6892 54.9346 50.8968 62.6624 50.6892 66.0143C50.4815 69.3662 47.1054 69.7236 47.1054 69.7236C47.1054 69.7236 47.1875 71.6845 47.2648 73.7468C47.287 74.339 47.1889 74.9296 46.9763 75.4828C46.7637 76.036 46.441 76.5403 46.0279 76.9651C45.6148 77.39 45.1197 77.7267 44.5727 77.9547C44.0257 78.1827 43.4381 78.2973 42.8455 78.2917C41.7264 78.278 40.6551 77.8365 39.8512 77.0578C39.0474 76.2791 38.5721 75.2223 38.5228 74.1042Z" fill="#FFBE9D"/>
<path d="M50.0323 60.5662C50.0323 60.6513 50.0071 60.7344 49.9599 60.8051C49.9126 60.8757 49.8455 60.9308 49.767 60.9634C49.6884 60.9959 49.602 61.0044 49.5186 60.9878C49.4352 60.9712 49.3586 60.9303 49.2985 60.8702C49.2384 60.8101 49.1975 60.7335 49.1809 60.6501C49.1643 60.5667 49.1728 60.4803 49.2053 60.4017C49.2379 60.3232 49.293 60.2561 49.3636 60.2088C49.4343 60.1616 49.5174 60.1364 49.6025 60.1364C49.7165 60.1364 49.8258 60.1817 49.9064 60.2623C49.987 60.3429 50.0323 60.4522 50.0323 60.5662Z" fill="#20332B"/>
<path d="M50.4477 60.0977C50.3897 60.1557 50.0758 59.8852 49.6121 59.8611C49.1485 59.8369 48.8056 60.0591 48.7573 59.9963C48.709 59.9335 48.7911 59.8659 48.9408 59.7645C49.1441 59.6306 49.3853 59.5662 49.6282 59.581C49.8712 59.5958 50.1028 59.689 50.2883 59.8466C50.4284 59.9673 50.4718 60.0542 50.4477 60.0977Z" fill="#20332B"/>
<path d="M45.0623 60.5662C45.0623 60.6513 45.0371 60.7344 44.9899 60.8051C44.9427 60.8757 44.8755 60.9308 44.797 60.9634C44.7184 60.9959 44.632 61.0044 44.5486 60.9878C44.4652 60.9712 44.3887 60.9303 44.3285 60.8702C44.2684 60.8101 44.2275 60.7335 44.2109 60.6501C44.1943 60.5667 44.2028 60.4803 44.2354 60.4017C44.2679 60.3232 44.323 60.2561 44.3937 60.2088C44.4644 60.1616 44.5475 60.1364 44.6325 60.1364C44.7465 60.1364 44.8558 60.1817 44.9364 60.2623C45.0171 60.3429 45.0623 60.4522 45.0623 60.5662Z" fill="#20332B"/>
<path d="M45.3281 60.0977C45.2701 60.1557 44.9562 59.8852 44.4925 59.8611C44.0288 59.8369 43.6859 60.0591 43.6376 59.9963C43.5893 59.9335 43.6714 59.8659 43.8212 59.7645C44.0189 59.6308 44.2539 59.5632 44.4925 59.5713C44.7357 59.5871 44.9675 59.6802 45.1542 59.8369C45.3087 59.9673 45.3522 60.0543 45.3281 60.0977Z" fill="#20332B"/>
<path d="M47.12 69.7139C45.5276 69.6463 43.9876 69.1252 42.6814 68.2119C42.6814 68.2119 43.7923 70.7185 47.1538 70.5833L47.12 69.7139Z" fill="#EB996E"/>
<path d="M46.9943 64.0002C47.241 63.9398 47.4937 63.9074 47.7477 63.9036C47.8636 63.9036 47.9796 63.9036 48.0085 63.7974C48.0219 63.6679 47.9985 63.5373 47.9409 63.4206C47.8411 63.1212 47.7348 62.7992 47.6222 62.4547C47.4048 61.7737 47.2164 61.1554 47.086 60.7063C47.0006 60.4659 46.9438 60.2162 46.917 59.9625C47.0438 60.1828 47.1427 60.4181 47.2116 60.6628C47.371 61.1071 47.5835 61.7157 47.8009 62.3967L48.1051 63.3627C48.1747 63.5139 48.19 63.6844 48.1486 63.8457C48.1315 63.8868 48.1052 63.9234 48.0717 63.9527C48.0382 63.982 47.9984 64.0033 47.9554 64.0147C47.8879 64.021 47.82 64.021 47.7526 64.0147C47.5001 64.0402 47.2455 64.0354 46.9943 64.0002Z" fill="#20332B"/>
<path d="M46.6515 64.4011C46.4701 64.4489 46.3039 64.5419 46.1685 64.6716C46.0851 64.742 46.0303 64.8404 46.0142 64.9483C45.9981 65.0563 46.0218 65.1664 46.081 65.2581C46.1402 65.3498 46.2307 65.4168 46.3357 65.4467C46.4407 65.4765 46.5529 65.4671 46.6515 65.4202C46.7399 65.4009 46.8231 65.363 46.8956 65.3088C46.9681 65.2547 47.0281 65.1856 47.0716 65.1063C47.1123 65.0236 47.1284 64.931 47.1182 64.8394C47.1079 64.7478 47.0716 64.6611 47.0137 64.5895C46.9533 64.5244 46.8727 64.4818 46.7849 64.4686C46.6971 64.4554 46.6075 64.4725 46.5307 64.517" fill="#EB996E"/>
<path d="M47.2504 65.0676C47.2504 65.1352 46.8688 65.2415 46.4583 65.0048C46.0478 64.7682 45.9367 64.377 46.0043 64.3625C46.0719 64.348 46.2458 64.604 46.5839 64.7875C46.922 64.971 47.2407 64.9952 47.2504 65.0676Z" fill="#20332B"/>
<path d="M44.9128 51.2591C44.203 51.2345 43.4965 51.3668 42.8437 51.6465C42.1908 51.9261 41.6077 52.3463 41.1358 52.8771C40.1988 53.9613 39.7222 55.3685 39.8076 56.7989C39.7981 57.3363 39.968 57.8615 40.2906 58.2914C40.7736 58.8468 41.5898 58.9579 42.3288 59.0303C43.0793 59.1694 43.852 59.1297 44.5843 58.9144C45.2992 58.6391 45.8932 57.9001 45.7338 57.1564C45.3813 57.6393 45.6759 58.3542 46.1782 58.6584C46.7098 58.9192 47.3036 59.0262 47.8928 58.9675H50.4236C50.7124 58.9961 51.0029 58.9336 51.2543 58.7888C51.3895 58.6513 51.4959 58.4882 51.5672 58.3091C51.6385 58.1299 51.6734 57.9384 51.6697 57.7456C51.8049 56.3981 51.9305 54.9636 51.3123 53.761C50.6982 52.6955 49.6963 51.9082 48.5158 51.5634C47.3615 51.1818 46.1009 51.3557 44.8983 51.2784" fill="#20332B"/>
<path d="M37.7741 73.6212C38.6966 74.1042 40.445 72.2013 41.015 71.3271C41.5223 70.406 41.6931 69.3369 41.4979 68.3036C41.3772 67.2652 41.1019 66.2461 41.0777 65.2028C41.0439 63.5124 41.6815 61.8944 41.9809 60.2281C42.3022 58.4156 42.2247 56.5548 41.7539 54.7752C41.5704 54.0846 41.2709 53.3263 40.5948 53.0655C40.3122 52.9711 40.0097 52.9532 39.7179 53.0134C39.4261 53.0736 39.1555 53.2099 38.9333 53.4084C38.496 53.8117 38.153 54.3064 37.9287 54.8573L37.3926 58.9241L37.7935 64.6184L37.7741 73.6212Z" fill="#20332B"/>
<path d="M62.0875 95.0658L64.5507 103.47C64.5507 103.47 51.6599 108.159 44.6808 108.073C38.1363 107.995 36.2624 107.251 33.9634 101.968C31.6644 96.6838 29.0369 90.6175 28.5008 87.1255C28.5008 87.1255 23.2411 72.5297 37.3249 73.969L39.2569 85.0777C39.2569 85.0777 40.8169 90.2311 40.928 90.5305C41.9809 93.3125 43.3429 97.3889 44.6615 97.8816C45.98 98.3742 62.0875 95.0658 62.0875 95.0658Z" fill="#519075"/>
<path d="M62.0876 95.0657C61.9784 95.1069 61.865 95.136 61.7495 95.1527L60.7836 95.3604C59.9238 95.5391 58.6777 95.8047 57.1322 96.1621C55.5867 96.5195 53.7513 96.959 51.6455 97.3454C49.3588 97.7989 47.0313 98.0142 44.7002 97.9878H44.6181L44.5891 97.9105C44.3235 97.2199 44.0433 96.4905 43.7777 95.7467C41.923 90.5354 40.5127 85.7442 39.3729 82.315C38.8078 80.5956 38.3345 79.2094 37.9964 78.2579C37.837 77.7749 37.7066 77.432 37.61 77.1615C37.5576 77.0352 37.5172 76.9042 37.4893 76.7703C37.4893 76.7703 37.552 76.8959 37.6583 77.1422C37.7646 77.3885 37.9095 77.7508 38.0882 78.2241C38.4552 79.1659 38.9527 80.5424 39.5371 82.257C40.7252 85.6765 42.1645 90.4677 44.0144 95.6598C44.28 96.4036 44.5553 97.1088 44.8209 97.8188L44.705 97.7415C47.0202 97.7703 49.3324 97.5664 51.6069 97.1329C53.6934 96.7562 55.5432 96.3263 57.0984 96.0027C58.6536 95.6791 59.8997 95.428 60.7691 95.2734L61.764 95.114C61.8709 95.0922 61.979 95.076 62.0876 95.0657Z" fill="#20332B"/>
<path d="M64.5508 103.47C64.4309 103.539 64.3048 103.597 64.1741 103.644C63.9229 103.75 63.551 103.895 63.068 104.073C62.1021 104.431 60.6821 104.904 58.9096 105.421C57.137 105.938 55.0167 106.503 52.6549 107.102C50.1 107.815 47.4807 108.272 44.8354 108.469C44.1363 108.502 43.4358 108.484 42.7393 108.415C42.0572 108.353 41.3846 108.212 40.7349 107.995C39.518 107.555 38.4026 106.873 37.4554 105.991C35.8884 104.479 34.5827 102.718 33.5915 100.779C32.7222 99.1518 32.1426 97.7801 31.7272 96.8286C31.5292 96.3456 31.3795 95.9834 31.2829 95.7274C31.2245 95.6032 31.1776 95.4738 31.1428 95.341C31.2166 95.4567 31.2781 95.5797 31.3264 95.7081C31.4471 95.9786 31.6113 96.336 31.8093 96.79C32.2392 97.727 32.8526 99.0842 33.7413 100.697C34.743 102.602 36.048 104.331 37.6051 105.817C38.534 106.667 39.6225 107.323 40.8073 107.749C41.4339 107.956 42.0821 108.09 42.7393 108.15C43.4244 108.218 44.1138 108.236 44.8016 108.203C47.4295 108.009 50.0323 107.56 52.5728 106.86C54.9394 106.276 57.0645 105.735 58.8516 105.237C60.6386 104.74 62.0489 104.271 63.0246 103.967L64.1451 103.581C64.2773 103.533 64.4129 103.496 64.5508 103.47Z" fill="#20332B"/>
<path opacity="0.2" d="M33.4805 100.693C33.4805 100.693 35.8954 109.966 42.1742 109.777C48.453 109.589 54.3502 106.904 54.3502 106.904L54.0701 106.614C54.0701 106.614 43.4444 108.903 40.4934 107.464C34.886 104.74 33.4805 100.693 33.4805 100.693Z" fill="black"/>
<path d="M63.6766 102.504H65.652C67.4439 102.33 68.4437 102.301 68.946 101.828C69.6173 101.185 68.6948 100.562 68.6948 100.562C68.6948 100.562 69.9892 100.113 69.8685 99.3257C69.7864 98.7847 69.173 98.7268 69.173 98.7268C69.173 98.7268 70.3177 98.2776 70.5447 97.7994C70.8489 97.1522 70.0617 96.8045 70.0617 96.8045C71.6217 95.8385 71.4816 94.8726 71.1194 94.7953C70.7572 94.718 69.5449 95.2783 69.5449 95.2783C68.5161 95.5729 65.71 96.4278 66.7484 94.8822C67.7868 93.3367 68.0042 91.7573 67.7675 91.2888C67.7013 91.1869 67.605 91.1081 67.492 91.0635C67.3789 91.0188 67.2548 91.0105 67.1368 91.0398C67.0188 91.069 66.9129 91.1343 66.8337 91.2265C66.7546 91.3188 66.7062 91.4334 66.6953 91.5545C66.5351 92.1624 66.2895 92.7445 65.966 93.2835C65.7218 93.7274 65.4051 94.1274 65.029 94.4668C64.5895 94.8581 64.1983 95.172 63.865 95.4328L62.1069 97.1233L63.6766 102.504Z" fill="#FFBE9D"/>
</svg>
